<svg xmlns="http://www.w3.org/2000/svg" version="1.1" xmlns:xlink="http://www.w3.org/1999/xlink" xmlns:svgjs="http://svgjs.com/svgjs" width="400" height="400"><svg id="SvgjsSvg1006" version="1.1" xmlns="http://www.w3.org/2000/svg" xmlns:xlink="http://www.w3.org/1999/xlink" width="400" height="400" viewBox="0, 0, 400,400"><g id="SvgjsG1005"><path id="SvgjsPath1004" d="M181.200 32.820 C 180.650 33.005,178.670 33.556,176.800 34.046 C 145.482 42.252,112.153 78.018,91.297 125.800 C 84.103 142.283,78.307 159.434,75.178 173.500 C 73.728 180.021,73.380 181.821,72.805 185.783 C 72.583 187.314,72.295 188.900,72.166 189.306 C 71.937 190.030,79.614 198.400,80.507 198.400 C 80.703 198.400,81.554 199.120,82.400 200.000 C 83.246 200.880,84.149 201.600,84.408 201.600 C 84.667 201.600,85.383 202.140,86.000 202.800 C 86.617 203.460,87.369 204.000,87.672 204.000 C 87.975 204.000,88.483 204.360,88.800 204.800 C 89.117 205.240,89.631 205.600,89.941 205.600 C 90.252 205.600,90.800 205.915,91.159 206.300 C 91.955 207.154,92.754 207.649,95.600 209.052 C 96.810 209.649,98.106 210.396,98.481 210.713 C 99.388 211.480,102.808 213.200,103.427 213.200 C 103.698 213.200,104.945 213.740,106.200 214.400 C 107.455 215.060,108.812 215.600,109.217 215.600 C 109.622 215.600,110.064 215.780,110.200 216.000 C 110.336 216.220,110.876 216.400,111.400 216.400 C 111.924 216.400,112.464 216.580,112.600 216.800 C 112.736 217.020,113.276 217.200,113.800 217.200 C 114.324 217.200,114.864 217.380,115.000 217.600 C 115.136 217.820,115.687 218.000,116.224 218.000 C 116.761 218.000,117.200 218.180,117.200 218.400 C 117.200 218.620,117.740 218.800,118.400 218.800 C 119.060 218.800,119.600 218.980,119.600 219.200 C 119.600 219.420,120.320 219.600,121.200 219.600 C 122.080 219.600,122.800 219.780,122.800 220.000 C 122.800 220.220,123.599 220.400,124.576 220.400 C 125.553 220.400,126.464 220.580,126.600 220.800 C 126.736 221.020,127.996 221.200,129.400 221.200 C 130.804 221.200,132.064 221.380,132.200 221.600 C 132.339 221.825,134.271 222.000,136.624 222.000 C 139.141 222.000,140.800 222.159,140.800 222.400 C 140.800 222.640,142.392 222.800,144.776 222.800 C 146.996 222.800,148.862 222.623,149.000 222.400 C 149.139 222.175,151.063 222.000,153.400 222.000 C 155.737 222.000,157.661 221.825,157.800 221.600 C 157.936 221.380,159.027 221.200,160.224 221.200 C 161.421 221.200,162.400 221.020,162.400 220.800 C 162.400 220.580,163.199 220.400,164.176 220.400 C 165.153 220.400,166.064 220.220,166.200 220.000 C 166.336 219.780,167.056 219.600,167.800 219.600 C 168.544 219.600,169.264 219.420,169.400 219.200 C 169.536 218.980,170.256 218.800,171.000 218.800 C 171.744 218.800,172.464 218.620,172.600 218.400 C 172.736 218.180,173.276 218.000,173.800 218.000 C 174.324 218.000,174.864 217.820,175.000 217.600 C 175.136 217.380,175.676 217.200,176.200 217.200 C 176.724 217.200,177.264 217.020,177.400 216.800 C 177.536 216.580,177.961 216.400,178.344 216.400 C 179.219 216.400,181.193 215.501,181.197 215.100 C 181.199 214.935,181.740 214.800,182.400 214.800 C 183.060 214.800,183.600 214.620,183.600 214.400 C 183.600 214.180,183.960 214.000,184.400 214.000 C 184.840 214.000,185.200 213.820,185.200 213.600 C 185.200 213.380,185.560 213.200,186.000 213.200 C 186.440 213.200,186.800 213.020,186.800 212.800 C 186.800 212.580,187.145 212.400,187.567 212.400 C 187.988 212.400,188.393 212.259,188.467 212.086 C 188.540 211.914,189.980 211.096,191.666 210.269 C 193.352 209.441,194.939 208.514,195.193 208.208 C 195.447 207.902,196.164 207.540,196.786 207.403 C 197.408 207.266,198.234 206.805,198.621 206.377 C 199.007 205.950,199.532 205.600,199.787 205.600 C 200.042 205.600,200.768 205.060,201.400 204.400 C 202.032 203.740,202.752 203.200,203.000 203.200 C 203.248 203.200,203.968 202.660,204.600 202.000 C 205.232 201.340,205.947 200.800,206.187 200.800 C 206.428 200.800,207.694 199.720,209.000 198.400 C 210.306 197.080,211.566 196.000,211.799 196.000 C 212.336 196.000,217.200 191.116,217.200 190.577 C 217.200 190.356,218.280 189.106,219.600 187.800 C 220.920 186.494,222.000 185.226,222.000 184.982 C 222.000 184.739,222.450 184.117,223.000 183.600 C 223.550 183.083,224.000 182.450,224.000 182.192 C 224.000 181.935,224.360 181.398,224.800 181.000 C 225.240 180.602,225.600 180.062,225.600 179.800 C 225.600 179.538,225.960 178.998,226.400 178.600 C 226.840 178.202,227.200 177.662,227.200 177.400 C 227.200 177.138,227.560 176.598,228.000 176.200 C 228.440 175.802,228.800 175.256,228.800 174.987 C 228.800 174.718,229.066 174.277,229.391 174.008 C 229.716 173.738,230.474 172.501,231.076 171.259 C 231.678 170.016,232.312 168.940,232.485 168.867 C 232.658 168.793,232.800 168.388,232.800 167.967 C 232.800 167.545,232.980 167.200,233.200 167.200 C 233.420 167.200,233.600 166.840,233.600 166.400 C 233.600 165.960,233.780 165.600,234.000 165.600 C 234.220 165.600,234.400 165.240,234.400 164.800 C 234.400 164.360,234.580 164.000,234.800 164.000 C 235.020 164.000,235.200 163.460,235.200 162.800 C 235.200 162.140,235.335 161.599,235.500 161.597 C 235.901 161.593,236.800 159.619,236.800 158.744 C 236.800 158.361,236.980 157.936,237.200 157.800 C 237.420 157.664,237.600 157.124,237.600 156.600 C 237.600 156.076,237.780 155.536,238.000 155.400 C 238.220 155.264,238.400 154.724,238.400 154.200 C 238.400 153.676,238.580 153.136,238.800 153.000 C 239.020 152.864,239.200 152.324,239.200 151.800 C 239.200 151.276,239.380 150.736,239.600 150.600 C 239.820 150.464,240.000 149.744,240.000 149.000 C 240.000 148.256,240.168 147.543,240.373 147.417 C 240.578 147.290,240.872 145.745,241.026 143.984 C 241.179 142.223,241.461 140.686,241.652 140.568 C 241.844 140.449,242.000 139.294,242.000 138.000 C 242.000 136.706,242.180 135.536,242.400 135.400 C 242.651 135.245,242.800 130.937,242.800 123.800 C 242.800 116.663,242.651 112.355,242.400 112.200 C 242.180 112.064,242.000 110.894,242.000 109.600 C 242.000 108.306,241.844 107.151,241.652 107.032 C 241.461 106.914,241.179 105.377,241.026 103.616 C 240.872 101.855,240.578 100.310,240.373 100.183 C 240.168 100.057,240.000 99.344,240.000 98.600 C 240.000 97.856,239.820 97.136,239.600 97.000 C 239.380 96.864,239.200 96.324,239.200 95.800 C 239.200 95.276,239.020 94.736,238.800 94.600 C 238.580 94.464,238.400 93.924,238.400 93.400 C 238.400 92.876,238.220 92.336,238.000 92.200 C 237.780 92.064,237.600 91.513,237.600 90.976 C 237.600 90.439,237.420 90.000,237.200 90.000 C 236.980 90.000,236.800 89.460,236.800 88.800 C 236.800 88.140,236.620 87.600,236.400 87.600 C 236.180 87.600,236.000 87.240,236.000 86.800 C 236.000 86.360,235.820 86.000,235.600 86.000 C 235.380 86.000,235.200 85.640,235.200 85.200 C 235.200 84.760,235.020 84.400,234.800 84.400 C 234.580 84.400,234.400 84.075,234.400 83.677 C 234.400 82.878,232.014 77.946,231.111 76.878 C 230.795 76.505,230.052 75.184,229.459 73.941 C 228.867 72.699,228.116 71.462,227.791 71.192 C 227.466 70.923,227.200 70.482,227.200 70.213 C 227.200 69.944,226.840 69.398,226.400 69.000 C 225.960 68.602,225.600 68.065,225.600 67.808 C 225.600 67.550,225.150 66.917,224.600 66.400 C 224.050 65.883,223.600 65.258,223.600 65.011 C 223.600 64.764,222.880 63.859,222.000 63.000 C 221.120 62.141,220.400 61.247,220.400 61.014 C 220.400 60.467,208.324 48.400,207.776 48.400 C 207.549 48.400,206.659 47.680,205.800 46.800 C 204.941 45.920,204.059 45.200,203.841 45.200 C 203.622 45.200,202.950 44.727,202.347 44.150 C 201.186 43.037,200.419 42.552,197.724 41.226 C 196.803 40.773,195.940 40.226,195.807 40.012 C 195.675 39.797,194.899 39.316,194.083 38.944 C 193.267 38.571,192.295 38.007,191.922 37.691 C 190.857 36.788,185.924 34.400,185.123 34.400 C 184.725 34.400,184.400 34.220,184.400 34.000 C 184.400 33.780,184.040 33.600,183.600 33.600 C 182.715 33.600,182.516 32.981,183.300 32.665 C 184.144 32.324,182.265 32.463,181.200 32.820 M154.574 62.014 C 154.786 62.226,155.723 62.400,156.656 62.400 C 157.589 62.400,158.464 62.580,158.600 62.800 C 158.736 63.020,159.456 63.200,160.200 63.200 C 160.944 63.200,161.664 63.380,161.800 63.600 C 161.936 63.820,162.487 64.000,163.024 64.000 C 163.561 64.000,164.000 64.180,164.000 64.400 C 164.000 64.620,164.540 64.800,165.200 64.800 C 165.860 64.800,166.400 64.980,166.400 65.200 C 166.400 65.420,166.940 65.600,167.600 65.600 C 168.260 65.600,168.800 65.780,168.800 66.000 C 168.800 66.220,169.145 66.400,169.567 66.400 C 169.988 66.400,170.393 66.541,170.467 66.713 C 170.540 66.885,172.342 67.886,174.470 68.936 C 176.599 69.986,178.556 71.106,178.819 71.423 C 179.082 71.740,179.515 72.000,179.779 72.000 C 180.044 72.000,180.683 72.450,181.200 73.000 C 181.717 73.550,182.340 74.000,182.585 74.000 C 182.830 74.000,183.917 74.900,185.000 76.000 C 186.083 77.100,187.149 78.000,187.368 78.000 C 187.914 78.000,190.800 80.858,190.800 81.398 C 190.800 81.637,191.610 82.628,192.600 83.600 C 193.590 84.572,194.400 85.565,194.400 85.808 C 194.400 86.051,194.940 86.768,195.600 87.400 C 196.260 88.032,196.800 88.764,196.800 89.026 C 196.800 89.288,197.060 89.718,197.377 89.981 C 197.694 90.244,198.814 92.201,199.864 94.330 C 200.914 96.458,201.915 98.260,202.087 98.333 C 202.259 98.407,202.400 98.812,202.400 99.233 C 202.400 99.655,202.580 100.000,202.800 100.000 C 203.020 100.000,203.200 100.540,203.200 101.200 C 203.200 101.860,203.380 102.400,203.600 102.400 C 203.820 102.400,204.000 102.940,204.000 103.600 C 204.000 104.260,204.180 104.800,204.400 104.800 C 204.620 104.800,204.800 105.239,204.800 105.776 C 204.800 106.313,204.980 106.864,205.200 107.000 C 205.420 107.136,205.600 107.856,205.600 108.600 C 205.600 109.344,205.780 110.064,206.000 110.200 C 206.220 110.336,206.400 111.236,206.400 112.200 C 206.400 113.164,206.580 114.064,206.800 114.200 C 207.020 114.336,207.200 115.956,207.200 117.800 C 207.200 119.644,207.380 121.264,207.600 121.400 C 207.820 121.536,208.000 122.717,208.000 124.024 C 208.000 125.341,207.822 126.400,207.600 126.400 C 207.362 126.400,207.200 127.925,207.200 130.176 C 207.200 132.263,207.021 134.063,206.800 134.200 C 206.580 134.336,206.400 135.236,206.400 136.200 C 206.400 137.164,206.220 138.064,206.000 138.200 C 205.780 138.336,205.600 139.056,205.600 139.800 C 205.600 140.544,205.420 141.264,205.200 141.400 C 204.980 141.536,204.800 142.076,204.800 142.600 C 204.800 143.124,204.620 143.664,204.400 143.800 C 204.180 143.936,204.000 144.487,204.000 145.024 C 204.000 145.561,203.820 146.000,203.600 146.000 C 203.380 146.000,203.200 146.360,203.200 146.800 C 203.200 147.240,203.020 147.600,202.800 147.600 C 202.580 147.600,202.400 148.140,202.400 148.800 C 202.400 149.460,202.220 150.000,202.000 150.000 C 201.780 150.000,201.600 150.360,201.600 150.800 C 201.600 151.240,201.420 151.600,201.200 151.600 C 200.980 151.600,200.800 151.960,200.800 152.400 C 200.800 152.840,200.620 153.200,200.400 153.200 C 200.180 153.200,200.000 153.448,200.000 153.751 C 200.000 154.054,199.721 154.534,199.380 154.816 C 199.039 155.099,198.425 156.066,198.015 156.965 C 197.604 157.864,196.803 159.036,196.234 159.570 C 195.665 160.103,195.200 160.744,195.200 160.995 C 195.200 161.245,194.660 161.968,194.000 162.600 C 193.340 163.232,192.800 163.938,192.800 164.167 C 192.800 164.721,185.538 172.000,184.986 172.000 C 184.750 172.000,183.937 172.647,183.178 173.439 C 182.420 174.230,181.440 175.048,181.000 175.256 C 179.719 175.862,178.460 176.626,177.703 177.256 C 177.316 177.578,176.100 178.282,175.000 178.821 C 173.900 179.359,172.940 179.935,172.867 180.100 C 172.793 180.265,172.388 180.400,171.967 180.400 C 171.545 180.400,171.200 180.580,171.200 180.800 C 171.200 181.020,170.840 181.200,170.400 181.200 C 169.960 181.200,169.600 181.380,169.600 181.600 C 169.600 181.820,169.060 182.000,168.400 182.000 C 167.740 182.000,167.200 182.180,167.200 182.400 C 167.200 182.620,166.761 182.800,166.224 182.800 C 165.687 182.800,165.136 182.980,165.000 183.200 C 164.864 183.420,164.324 183.600,163.800 183.600 C 163.276 183.600,162.736 183.780,162.600 184.000 C 162.464 184.220,161.924 184.400,161.400 184.400 C 160.876 184.400,160.336 184.580,160.200 184.800 C 160.064 185.020,159.164 185.200,158.200 185.200 C 157.236 185.200,156.336 185.380,156.200 185.600 C 156.064 185.820,154.793 186.000,153.376 186.000 C 151.925 186.000,150.800 186.175,150.800 186.400 C 150.800 186.940,138.534 186.940,138.200 186.400 C 138.064 186.180,136.793 186.000,135.376 186.000 C 133.925 186.000,132.800 185.825,132.800 185.600 C 132.800 185.380,132.181 185.200,131.424 185.200 C 130.667 185.200,129.936 185.020,129.800 184.800 C 129.664 184.580,128.944 184.400,128.200 184.400 C 127.456 184.400,126.736 184.220,126.600 184.000 C 126.464 183.780,125.924 183.600,125.400 183.600 C 124.876 183.600,124.336 183.420,124.200 183.200 C 124.064 182.980,123.643 182.800,123.264 182.800 C 122.520 182.800,112.835 178.059,111.765 177.171 C 111.026 176.558,109.782 175.810,108.584 175.259 C 108.135 175.052,107.527 174.595,107.235 174.242 C 106.942 173.889,106.542 173.600,106.347 173.600 C 105.828 173.600,96.000 163.688,96.000 163.164 C 96.000 162.921,95.460 162.217,94.800 161.600 C 94.140 160.983,93.600 160.309,93.600 160.102 C 93.600 159.894,93.240 159.398,92.800 159.000 C 92.360 158.602,92.000 158.062,92.000 157.800 C 92.000 157.538,91.640 156.998,91.200 156.600 C 90.760 156.202,90.400 155.679,90.399 155.438 C 90.399 155.197,89.409 153.027,88.199 150.615 C 86.990 148.203,86.000 145.917,86.000 145.534 C 86.000 145.152,85.757 144.696,85.460 144.520 C 85.019 144.259,85.092 143.651,85.863 141.200 C 87.243 136.813,90.091 129.498,91.844 125.839 C 92.150 125.200,92.400 124.435,92.400 124.139 C 92.400 123.842,92.580 123.600,92.800 123.600 C 93.020 123.600,93.200 123.350,93.200 123.045 C 93.200 122.740,94.899 119.095,96.976 114.945 C 100.185 108.533,102.315 104.621,107.241 96.090 C 113.890 84.576,132.640 61.503,134.704 62.295 C 135.143 62.464,135.271 62.363,135.120 61.969 C 134.858 61.287,153.891 61.331,154.574 62.014 " stroke="none" fill="#eec492" fill-rule="evenodd"></path><path id="SvgjsPath1003" d="M207.800 20.400 C 207.936 20.620,208.442 20.787,208.924 20.772 C 209.769 20.745,209.771 20.731,209.000 20.400 C 207.899 19.927,207.508 19.927,207.800 20.400 M179.000 22.000 C 178.864 22.220,179.123 22.400,179.576 22.400 C 180.029 22.400,180.400 22.220,180.400 22.000 C 180.400 21.780,180.141 21.600,179.824 21.600 C 179.507 21.600,179.136 21.780,179.000 22.000 M172.400 23.566 C 172.400 23.775,172.850 23.897,173.401 23.839 C 174.854 23.684,174.952 23.382,173.583 23.277 C 172.932 23.228,172.400 23.358,172.400 23.566 M230.600 26.000 C 230.736 26.220,231.242 26.387,231.724 26.372 C 232.569 26.345,232.571 26.331,231.800 26.000 C 230.699 25.527,230.308 25.527,230.600 26.000 M162.095 27.466 C 161.278 27.796,160.723 29.105,161.261 29.438 C 161.549 29.616,161.615 29.548,161.436 29.259 C 161.278 29.002,161.415 28.692,161.744 28.566 C 162.191 28.394,163.126 27.073,162.687 27.232 C 162.639 27.249,162.373 27.355,162.095 27.466 M159.600 29.187 C 159.600 29.401,159.344 29.477,159.031 29.356 C 158.542 29.169,157.258 30.726,157.566 31.133 C 157.621 31.207,157.567 31.366,157.446 31.487 C 157.324 31.609,157.299 31.324,157.390 30.854 C 157.500 30.279,157.352 30.000,156.934 30.000 C 156.536 30.000,156.400 30.224,156.555 30.626 C 156.739 31.107,156.610 31.194,155.997 30.999 C 155.541 30.854,155.200 30.929,155.200 31.173 C 155.200 31.408,154.885 31.614,154.500 31.632 C 154.115 31.649,154.015 31.751,154.278 31.857 C 154.540 31.964,154.661 32.296,154.547 32.595 C 154.358 33.086,154.550 33.118,155.949 32.831 C 156.031 32.814,155.874 32.530,155.600 32.200 C 155.027 31.509,155.331 31.428,156.384 31.992 C 156.915 32.276,157.250 32.222,157.603 31.796 C 157.871 31.473,158.278 31.325,158.507 31.466 C 158.749 31.616,158.804 31.530,158.638 31.262 C 158.375 30.836,158.809 30.643,159.800 30.747 C 160.020 30.770,160.200 30.342,160.200 29.795 C 160.200 29.248,160.065 28.800,159.900 28.800 C 159.735 28.800,159.600 28.974,159.600 29.187 M185.000 30.458 C 182.580 30.884,179.924 31.334,179.097 31.458 C 178.271 31.583,177.495 31.845,177.374 32.042 C 177.252 32.239,176.711 32.400,176.171 32.400 C 175.631 32.400,174.832 32.580,174.395 32.800 C 173.958 33.020,173.242 33.380,172.805 33.600 C 172.368 33.820,171.820 34.000,171.586 34.000 C 171.352 34.000,170.406 34.365,169.483 34.811 C 167.399 35.818,164.800 36.284,164.800 35.651 C 164.800 35.403,164.181 35.200,163.424 35.200 C 162.667 35.200,161.936 35.020,161.800 34.800 C 161.664 34.580,160.404 34.400,159.000 34.400 C 157.596 34.400,156.336 34.220,156.200 34.000 C 156.064 33.780,155.533 33.600,155.019 33.600 C 154.506 33.600,153.987 33.344,153.867 33.031 C 153.734 32.684,153.329 32.546,152.829 32.677 C 152.378 32.794,152.108 33.050,152.228 33.245 C 152.349 33.440,152.156 33.600,151.800 33.600 C 151.444 33.600,151.268 33.787,151.410 34.016 C 151.575 34.284,151.263 34.354,150.534 34.214 C 149.910 34.094,149.651 34.110,149.957 34.250 C 150.339 34.425,150.111 34.674,149.229 35.045 C 148.366 35.408,148.044 35.752,148.249 36.093 C 148.435 36.402,148.259 36.366,147.800 36.000 C 147.361 35.650,147.172 35.609,147.347 35.900 C 147.536 36.215,147.416 36.400,147.024 36.400 C 146.681 36.400,146.400 36.580,146.400 36.800 C 146.400 37.020,146.010 37.200,145.533 37.200 C 145.057 37.200,144.781 37.314,144.920 37.454 C 145.060 37.593,144.325 38.350,143.287 39.136 C 142.249 39.921,141.340 40.707,141.267 40.882 C 141.193 41.057,140.885 41.200,140.582 41.200 C 140.279 41.200,139.318 41.920,138.447 42.800 C 137.576 43.680,136.658 44.400,136.408 44.400 C 136.158 44.400,136.063 44.578,136.197 44.795 C 136.332 45.013,136.206 45.101,135.919 44.990 C 135.631 44.880,134.695 45.596,133.838 46.581 C 132.981 47.567,132.127 48.279,131.940 48.163 C 131.753 48.047,131.600 48.117,131.600 48.318 C 131.600 48.519,129.258 51.064,126.396 53.974 C 123.533 56.884,120.723 59.879,120.151 60.629 C 119.579 61.379,118.923 61.876,118.694 61.734 C 118.464 61.592,118.393 61.665,118.536 61.896 C 118.678 62.127,117.986 63.136,116.998 64.139 C 116.009 65.142,115.200 66.059,115.200 66.177 C 115.200 66.392,114.234 67.632,113.300 68.616 C 113.025 68.906,112.800 69.259,112.800 69.400 C 112.800 69.541,112.575 69.899,112.300 70.194 C 111.143 71.436,109.807 73.374,109.900 73.675 C 109.955 73.854,109.719 74.000,109.376 74.000 C 109.033 74.000,108.864 74.180,109.000 74.400 C 109.136 74.620,109.057 74.800,108.824 74.800 C 108.591 74.800,108.400 75.171,108.400 75.624 C 108.400 76.077,108.220 76.336,108.000 76.200 C 107.780 76.064,107.600 76.221,107.600 76.549 C 107.600 76.878,107.240 77.260,106.800 77.400 C 106.360 77.540,106.000 77.899,106.000 78.199 C 106.000 78.676,103.053 83.467,102.432 84.000 C 102.304 84.110,101.929 84.740,101.600 85.400 C 101.271 86.060,100.782 86.741,100.513 86.913 C 100.245 87.085,99.714 87.895,99.334 88.713 C 98.953 89.531,98.522 90.290,98.377 90.400 C 98.231 90.510,97.807 91.194,97.435 91.921 C 97.063 92.647,96.487 93.345,96.156 93.472 C 95.825 93.599,95.644 93.937,95.753 94.222 C 95.863 94.508,95.695 94.955,95.381 95.216 C 95.066 95.477,94.907 95.850,95.028 96.045 C 95.149 96.240,95.057 96.400,94.824 96.400 C 94.591 96.400,94.400 96.676,94.400 97.013 C 94.400 97.349,94.131 97.728,93.802 97.854 C 93.474 97.981,93.294 98.229,93.404 98.406 C 93.731 98.936,93.150 100.016,92.690 99.732 C 92.434 99.574,92.354 99.704,92.491 100.059 C 92.615 100.384,92.380 101.088,91.967 101.625 C 91.555 102.161,91.214 102.825,91.209 103.100 C 91.204 103.375,91.009 103.600,90.776 103.600 C 90.543 103.600,90.455 103.765,90.580 103.968 C 90.705 104.170,90.536 104.607,90.204 104.939 C 89.872 105.271,89.600 105.826,89.600 106.171 C 89.600 106.517,89.420 106.800,89.200 106.800 C 88.980 106.800,88.800 107.081,88.800 107.424 C 88.800 107.767,88.650 107.955,88.467 107.841 C 88.283 107.728,88.103 107.897,88.067 108.218 C 88.030 108.538,87.970 109.070,87.933 109.400 C 87.897 109.730,87.731 110.000,87.564 110.000 C 87.398 110.000,87.054 110.632,86.799 111.404 C 86.544 112.176,86.170 112.705,85.968 112.580 C 85.765 112.455,85.600 112.706,85.600 113.139 C 85.600 113.848,84.979 115.312,83.325 118.500 C 83.012 119.105,82.868 119.600,83.006 119.600 C 83.144 119.600,82.965 119.892,82.609 120.248 C 82.252 120.605,81.857 121.415,81.730 122.048 C 81.604 122.682,81.343 123.200,81.150 123.200 C 80.958 123.200,80.800 123.448,80.800 123.751 C 80.800 124.054,80.497 124.999,80.126 125.851 C 79.755 126.703,79.485 127.535,79.526 127.700 C 79.567 127.865,79.420 128.000,79.200 128.000 C 78.980 128.000,78.800 128.456,78.800 129.013 C 78.800 129.569,78.527 130.130,78.193 130.258 C 77.859 130.386,77.621 130.696,77.663 130.946 C 77.832 131.940,76.753 134.818,76.313 134.546 C 76.022 134.366,75.952 134.498,76.115 134.922 C 76.252 135.281,76.193 135.681,75.983 135.811 C 75.772 135.941,75.600 136.476,75.600 137.000 C 75.600 137.524,75.420 138.064,75.200 138.200 C 74.980 138.336,74.800 138.807,74.800 139.247 C 74.800 139.781,74.633 139.947,74.300 139.747 C 74.009 139.572,74.050 139.761,74.400 140.200 C 74.750 140.639,74.791 140.828,74.500 140.653 C 74.153 140.445,74.000 140.659,74.000 141.353 C 74.000 141.903,73.820 142.464,73.600 142.600 C 73.380 142.736,73.200 143.297,73.200 143.847 C 73.200 144.397,73.058 144.760,72.885 144.652 C 72.712 144.545,72.533 144.900,72.488 145.441 C 72.444 145.982,72.045 147.173,71.603 148.087 C 71.162 149.002,70.800 150.177,70.800 150.699 C 70.800 151.287,70.633 151.544,70.360 151.375 C 70.051 151.184,70.055 151.356,70.374 151.952 C 70.673 152.511,70.687 152.800,70.414 152.800 C 70.186 152.800,70.000 153.081,70.000 153.424 C 70.000 153.767,69.865 153.964,69.700 153.862 C 69.535 153.760,69.363 154.332,69.318 155.132 C 69.273 155.933,69.048 156.651,68.818 156.727 C 68.588 156.804,68.400 157.572,68.400 158.433 C 68.400 159.295,68.250 160.000,68.067 160.000 C 67.883 160.000,67.703 160.270,67.667 160.600 C 67.630 160.930,67.570 161.470,67.533 161.800 C 67.497 162.130,67.317 162.400,67.133 162.400 C 66.622 162.400,66.737 163.914,67.273 164.245 C 67.600 164.447,67.516 164.619,67.004 164.798 C 66.178 165.088,65.878 166.722,66.507 167.510 C 66.731 167.790,66.798 168.135,66.657 168.276 C 66.516 168.418,66.400 168.329,66.400 168.079 C 66.400 167.829,66.130 167.729,65.800 167.855 C 65.426 167.999,65.264 168.437,65.369 169.020 C 65.462 169.533,65.327 170.049,65.069 170.165 C 64.792 170.290,64.845 170.362,65.200 170.341 C 66.609 170.257,67.200 170.433,67.200 170.938 C 67.200 171.234,67.560 171.802,68.000 172.200 C 68.440 172.598,68.800 173.138,68.800 173.400 C 68.800 173.662,69.160 174.202,69.600 174.600 C 70.040 174.998,70.400 175.535,70.400 175.792 C 70.400 176.050,70.850 176.683,71.400 177.200 C 72.443 178.180,72.830 180.887,72.000 181.400 C 71.780 181.536,71.600 182.411,71.600 183.344 C 71.600 184.277,71.436 185.211,71.235 185.420 C 71.035 185.629,70.771 186.790,70.649 188.000 C 70.527 189.210,70.241 191.550,70.014 193.200 C 63.900 237.617,71.342 285.890,89.090 316.944 C 134.643 396.646,256.268 397.234,304.311 317.985 C 321.626 289.423,329.274 250.363,325.809 208.191 C 324.629 193.820,322.032 178.390,318.643 165.600 C 318.322 164.390,317.679 161.960,317.213 160.200 C 314.302 149.208,307.895 130.949,303.563 121.300 C 303.143 120.365,302.422 118.745,301.959 117.700 C 297.314 107.207,288.104 90.831,281.656 81.600 C 279.853 79.019,275.197 72.783,274.786 72.400 C 274.668 72.290,273.434 70.797,272.045 69.081 C 264.789 60.125,249.303 46.191,243.200 43.127 C 242.650 42.850,241.480 42.147,240.600 41.563 C 226.594 32.273,202.290 27.419,185.000 30.458 M211.000 31.377 C 219.873 33.008,237.809 39.634,239.600 41.942 C 239.710 42.084,240.205 42.425,240.700 42.700 C 241.195 42.975,242.005 43.425,242.500 43.700 C 242.995 43.975,243.490 44.302,243.600 44.426 C 243.710 44.551,244.700 45.263,245.800 46.008 C 249.702 48.653,256.563 54.274,259.749 57.436 C 266.655 64.293,269.600 67.917,269.600 69.559 C 269.600 69.985,269.735 70.393,269.900 70.467 C 270.391 70.685,272.000 74.016,272.000 74.814 C 272.000 75.220,272.180 75.664,272.400 75.800 C 272.620 75.936,272.800 76.476,272.800 77.000 C 272.800 77.524,272.980 78.064,273.200 78.200 C 273.420 78.336,273.600 78.876,273.600 79.400 C 273.600 79.924,273.780 80.464,274.000 80.600 C 274.220 80.736,274.400 81.276,274.400 81.800 C 274.400 82.324,274.580 82.864,274.800 83.000 C 275.020 83.136,275.200 83.676,275.200 84.200 C 275.200 84.724,275.372 85.259,275.582 85.389 C 275.791 85.518,276.085 86.703,276.234 88.021 C 276.383 89.339,276.662 90.514,276.853 90.633 C 277.044 90.751,277.200 91.467,277.200 92.224 C 277.200 92.981,277.380 93.600,277.600 93.600 C 277.820 93.600,278.000 94.399,278.000 95.376 C 278.000 96.353,278.180 97.264,278.400 97.400 C 278.620 97.536,278.800 98.616,278.800 99.800 C 278.800 100.984,278.980 102.064,279.200 102.200 C 279.420 102.336,279.600 103.416,279.600 104.600 C 279.600 105.784,279.780 106.864,280.000 107.000 C 280.227 107.140,280.400 109.130,280.400 111.600 C 280.400 114.070,280.573 116.060,280.800 116.200 C 281.044 116.351,281.200 119.463,281.200 124.200 C 281.200 128.937,281.044 132.049,280.800 132.200 C 280.577 132.338,280.400 134.196,280.400 136.400 C 280.400 138.604,280.223 140.462,280.000 140.600 C 279.780 140.736,279.600 141.996,279.600 143.400 C 279.600 144.804,279.420 146.064,279.200 146.200 C 278.980 146.336,278.800 147.236,278.800 148.200 C 278.800 149.164,278.620 150.064,278.400 150.200 C 278.180 150.336,278.000 151.236,278.000 152.200 C 278.000 153.164,277.820 154.064,277.600 154.200 C 277.380 154.336,277.200 155.067,277.200 155.824 C 277.200 156.581,277.038 157.200,276.841 157.200 C 276.643 157.200,276.355 158.461,276.200 160.002 C 276.045 161.542,275.757 162.903,275.559 163.025 C 275.362 163.147,275.200 163.676,275.200 164.200 C 275.200 164.724,275.020 165.264,274.800 165.400 C 274.580 165.536,274.400 166.076,274.400 166.600 C 274.400 167.124,274.220 167.664,274.000 167.800 C 273.780 167.936,273.600 168.391,273.600 168.811 C 273.600 169.232,273.240 170.217,272.800 171.000 C 272.360 171.783,272.000 172.683,272.000 173.000 C 272.000 173.317,271.640 174.217,271.200 175.000 C 270.760 175.783,270.400 176.672,270.400 176.974 C 270.400 177.632,268.728 180.943,268.300 181.133 C 268.135 181.207,268.000 181.612,268.000 182.033 C 268.000 182.455,267.820 182.800,267.600 182.800 C 267.380 182.800,267.200 183.160,267.200 183.600 C 267.200 184.040,267.020 184.400,266.800 184.400 C 266.580 184.400,266.400 184.760,266.400 185.200 C 266.400 185.640,266.220 186.000,266.000 186.000 C 265.780 186.000,265.600 186.360,265.600 186.800 C 265.600 187.240,265.420 187.600,265.200 187.600 C 264.980 187.600,264.800 187.960,264.800 188.400 C 264.800 188.840,264.664 189.200,264.498 189.200 C 264.331 189.200,263.946 189.785,263.641 190.500 C 263.336 191.215,262.781 192.160,262.409 192.600 C 262.037 193.040,261.419 194.030,261.037 194.800 C 259.938 197.013,259.378 197.940,258.664 198.729 C 258.299 199.133,258.000 199.646,258.000 199.870 C 258.000 200.093,257.640 200.602,257.200 201.000 C 256.760 201.398,256.400 201.938,256.400 202.200 C 256.400 202.462,256.040 203.002,255.600 203.400 C 255.160 203.798,254.800 204.330,254.800 204.581 C 254.800 204.832,254.080 205.741,253.200 206.600 C 252.320 207.459,251.600 208.359,251.600 208.600 C 251.600 208.841,250.880 209.741,250.000 210.600 C 249.120 211.459,248.400 212.353,248.400 212.585 C 248.400 213.130,234.326 227.200,233.781 227.200 C 233.555 227.200,232.483 228.100,231.400 229.200 C 230.317 230.300,229.232 231.200,228.990 231.200 C 228.748 231.200,228.032 231.740,227.400 232.400 C 226.768 233.060,226.042 233.600,225.787 233.600 C 225.532 233.600,224.998 233.960,224.600 234.400 C 224.202 234.840,223.668 235.200,223.413 235.200 C 223.158 235.200,222.432 235.740,221.800 236.400 C 221.168 237.060,220.436 237.600,220.174 237.600 C 219.912 237.600,219.466 237.879,219.184 238.220 C 218.901 238.561,217.900 239.190,216.959 239.619 C 216.018 240.047,215.137 240.579,215.000 240.800 C 214.737 241.225,211.496 242.800,210.884 242.800 C 210.686 242.800,210.230 243.125,209.871 243.522 C 209.511 243.919,208.583 244.493,207.809 244.797 C 207.034 245.101,206.400 245.496,206.400 245.675 C 206.400 245.854,206.040 246.000,205.600 246.000 C 205.160 246.000,204.800 246.180,204.800 246.400 C 204.800 246.620,204.440 246.800,204.000 246.800 C 203.560 246.800,203.200 246.980,203.200 247.200 C 203.200 247.420,202.675 247.600,202.033 247.600 C 201.392 247.600,200.807 247.735,200.733 247.900 C 200.543 248.328,197.232 250.000,196.574 250.000 C 196.272 250.000,195.383 250.360,194.600 250.800 C 193.817 251.240,192.832 251.600,192.411 251.600 C 191.991 251.600,191.536 251.780,191.400 252.000 C 191.264 252.220,190.809 252.400,190.389 252.400 C 189.968 252.400,188.983 252.760,188.200 253.200 C 187.417 253.640,186.252 254.000,185.611 254.000 C 184.971 254.000,184.336 254.180,184.200 254.400 C 184.064 254.620,183.513 254.800,182.976 254.800 C 182.439 254.800,182.000 254.980,182.000 255.200 C 182.000 255.420,181.280 255.600,180.400 255.600 C 179.520 255.600,178.800 255.780,178.800 256.000 C 178.800 256.220,178.181 256.400,177.424 256.400 C 176.667 256.400,175.936 256.580,175.800 256.800 C 175.664 257.020,174.944 257.200,174.200 257.200 C 173.456 257.200,172.736 257.380,172.600 257.600 C 172.464 257.820,171.384 258.000,170.200 258.000 C 169.016 258.000,167.936 258.180,167.800 258.400 C 167.664 258.620,166.609 258.800,165.456 258.800 C 164.303 258.800,163.135 259.025,162.860 259.300 C 162.475 259.685,158.315 259.800,144.800 259.800 C 131.285 259.800,127.125 259.685,126.740 259.300 C 126.456 259.016,125.247 258.800,123.944 258.800 C 122.681 258.800,121.536 258.620,121.400 258.400 C 121.264 258.180,120.364 258.000,119.400 258.000 C 118.436 258.000,117.536 257.820,117.400 257.600 C 117.264 257.380,116.364 257.200,115.400 257.200 C 114.436 257.200,113.536 257.020,113.400 256.800 C 113.264 256.580,112.544 256.400,111.800 256.400 C 111.056 256.400,110.336 256.220,110.200 256.000 C 110.064 255.780,109.524 255.600,109.000 255.600 C 108.476 255.600,107.936 255.420,107.800 255.200 C 107.664 254.980,106.933 254.800,106.176 254.800 C 105.419 254.800,104.800 254.620,104.800 254.400 C 104.800 254.180,104.260 254.000,103.600 254.000 C 102.940 254.000,102.400 253.820,102.400 253.600 C 102.400 253.380,101.860 253.200,101.200 253.200 C 100.540 253.200,100.000 253.020,100.000 252.800 C 100.000 252.580,99.645 252.400,99.212 252.400 C 98.779 252.400,97.783 252.040,97.000 251.600 C 96.217 251.160,95.317 250.800,95.000 250.800 C 94.683 250.800,93.783 250.440,93.000 250.000 C 92.217 249.560,91.357 249.200,91.090 249.200 C 90.823 249.200,87.493 247.625,83.690 245.700 C 74.032 240.811,73.461 240.498,72.958 239.810 C 72.713 239.475,72.217 239.200,71.856 239.200 C 71.495 239.200,71.200 239.020,71.200 238.800 C 71.200 238.580,70.941 238.400,70.624 238.400 C 69.586 238.400,69.444 237.515,69.153 229.209 C 68.270 204.001,71.299 183.100,79.936 154.800 C 81.696 149.035,87.074 134.440,88.993 130.220 C 89.860 128.316,91.778 123.983,92.628 122.009 C 94.990 116.528,103.222 100.947,105.669 97.328 C 106.291 96.408,106.800 95.549,106.800 95.417 C 106.800 95.286,108.450 92.709,110.467 89.689 C 140.030 45.438,175.518 24.853,211.000 31.377 M64.597 171.367 C 64.128 172.977,64.110 173.580,64.537 173.324 C 64.797 173.168,64.766 173.335,64.466 173.706 C 64.172 174.068,64.047 174.553,64.189 174.782 C 64.331 175.012,64.237 175.200,63.981 175.200 C 63.724 175.200,63.610 175.448,63.726 175.751 C 63.842 176.054,63.727 176.518,63.469 176.782 C 63.121 177.137,63.288 177.132,64.111 176.761 C 64.812 176.446,65.082 176.122,64.842 175.882 C 64.357 175.397,65.161 173.529,65.709 173.867 C 65.946 174.014,65.938 173.818,65.688 173.372 C 65.374 172.810,65.433 172.503,65.937 172.087 C 66.302 171.787,66.344 171.674,66.032 171.836 C 65.632 172.044,65.532 171.954,65.694 171.532 C 65.835 171.164,65.692 170.933,65.324 170.933 C 64.994 170.933,64.667 171.128,64.597 171.367 M195.163 387.724 C 195.342 387.903,196.369 387.990,197.444 387.918 L 199.400 387.787 197.119 387.594 C 195.864 387.487,194.984 387.546,195.163 387.724 " stroke="none" fill="#e0ae79" fill-rule="evenodd"></path><path id="SvgjsPath1002" d="M135.120 61.969 C 135.271 62.363,135.143 62.464,134.704 62.295 C 132.640 61.503,113.890 84.576,107.241 96.090 C 102.315 104.621,100.185 108.533,96.976 114.945 C 94.899 119.095,93.200 122.740,93.200 123.045 C 93.200 123.350,93.020 123.600,92.800 123.600 C 92.580 123.600,92.400 123.842,92.400 124.139 C 92.400 124.435,92.150 125.200,91.844 125.839 C 90.091 129.498,87.243 136.813,85.863 141.200 C 85.092 143.651,85.019 144.259,85.460 144.520 C 85.757 144.696,86.000 145.152,86.000 145.534 C 86.000 145.917,86.990 148.203,88.199 150.615 C 89.409 153.027,90.399 155.197,90.399 155.438 C 90.400 155.679,90.760 156.202,91.200 156.600 C 91.640 156.998,92.000 157.538,92.000 157.800 C 92.000 158.062,92.360 158.602,92.800 159.000 C 93.240 159.398,93.600 159.894,93.600 160.102 C 93.600 160.309,94.140 160.983,94.800 161.600 C 95.460 162.217,96.000 162.921,96.000 163.164 C 96.000 163.688,105.828 173.600,106.347 173.600 C 106.542 173.600,106.942 173.889,107.235 174.242 C 107.527 174.595,108.135 175.052,108.584 175.259 C 109.782 175.810,111.026 176.558,111.765 177.171 C 112.835 178.059,122.520 182.800,123.264 182.800 C 123.643 182.800,124.064 182.980,124.200 183.200 C 124.336 183.420,124.876 183.600,125.400 183.600 C 125.924 183.600,126.464 183.780,126.600 184.000 C 126.736 184.220,127.456 184.400,128.200 184.400 C 128.944 184.400,129.664 184.580,129.800 184.800 C 129.936 185.020,130.667 185.200,131.424 185.200 C 132.181 185.200,132.800 185.380,132.800 185.600 C 132.800 185.825,133.925 186.000,135.376 186.000 C 136.793 186.000,138.064 186.180,138.200 186.400 C 138.534 186.940,150.800 186.940,150.800 186.400 C 150.800 186.175,151.925 186.000,153.376 186.000 C 154.793 186.000,156.064 185.820,156.200 185.600 C 156.336 185.380,157.236 185.200,158.200 185.200 C 159.164 185.200,160.064 185.020,160.200 184.800 C 160.336 184.580,160.876 184.400,161.400 184.400 C 161.924 184.400,162.464 184.220,162.600 184.000 C 162.736 183.780,163.276 183.600,163.800 183.600 C 164.324 183.600,164.864 183.420,165.000 183.200 C 165.136 182.980,165.687 182.800,166.224 182.800 C 166.761 182.800,167.200 182.620,167.200 182.400 C 167.200 182.180,167.740 182.000,168.400 182.000 C 169.060 182.000,169.600 181.820,169.600 181.600 C 169.600 181.380,169.960 181.200,170.400 181.200 C 170.840 181.200,171.200 181.020,171.200 180.800 C 171.200 180.580,171.545 180.400,171.967 180.400 C 172.388 180.400,172.793 180.265,172.867 180.100 C 172.940 179.935,173.900 179.359,175.000 178.821 C 176.100 178.282,177.316 177.578,177.703 177.256 C 178.460 176.626,179.719 175.862,181.000 175.256 C 181.440 175.048,182.420 174.230,183.178 173.439 C 183.937 172.647,184.750 172.000,184.986 172.000 C 185.538 172.000,192.800 164.721,192.800 164.167 C 192.800 163.938,193.340 163.232,194.000 162.600 C 194.660 161.968,195.200 161.245,195.200 160.995 C 195.200 160.744,195.665 160.103,196.234 159.570 C 196.803 159.036,197.604 157.864,198.015 156.965 C 198.425 156.066,199.039 155.099,199.380 154.816 C 199.721 154.534,200.000 154.054,200.000 153.751 C 200.000 153.448,200.180 153.200,200.400 153.200 C 200.620 153.200,200.800 152.840,200.800 152.400 C 200.800 151.960,200.980 151.600,201.200 151.600 C 201.420 151.600,201.600 151.240,201.600 150.800 C 201.600 150.360,201.780 150.000,202.000 150.000 C 202.220 150.000,202.400 149.460,202.400 148.800 C 202.400 148.140,202.580 147.600,202.800 147.600 C 203.020 147.600,203.200 147.240,203.200 146.800 C 203.200 146.360,203.380 146.000,203.600 146.000 C 203.820 146.000,204.000 145.561,204.000 145.024 C 204.000 144.487,204.180 143.936,204.400 143.800 C 204.620 143.664,204.800 143.124,204.800 142.600 C 204.800 142.076,204.980 141.536,205.200 141.400 C 205.420 141.264,205.600 140.544,205.600 139.800 C 205.600 139.056,205.780 138.336,206.000 138.200 C 206.220 138.064,206.400 137.164,206.400 136.200 C 206.400 135.236,206.580 134.336,206.800 134.200 C 207.021 134.063,207.200 132.263,207.200 130.176 C 207.200 127.925,207.362 126.400,207.600 126.400 C 207.822 126.400,208.000 125.341,208.000 124.024 C 208.000 122.717,207.820 121.536,207.600 121.400 C 207.380 121.264,207.200 119.644,207.200 117.800 C 207.200 115.956,207.020 114.336,206.800 114.200 C 206.580 114.064,206.400 113.164,206.400 112.200 C 206.400 111.236,206.220 110.336,206.000 110.200 C 205.780 110.064,205.600 109.344,205.600 108.600 C 205.600 107.856,205.420 107.136,205.200 107.000 C 204.980 106.864,204.800 106.313,204.800 105.776 C 204.800 105.239,204.620 104.800,204.400 104.800 C 204.180 104.800,204.000 104.260,204.000 103.600 C 204.000 102.940,203.820 102.400,203.600 102.400 C 203.380 102.400,203.200 101.860,203.200 101.200 C 203.200 100.540,203.020 100.000,202.800 100.000 C 202.580 100.000,202.400 99.655,202.400 99.233 C 202.400 98.812,202.259 98.407,202.087 98.333 C 201.915 98.260,200.914 96.458,199.864 94.330 C 198.814 92.201,197.694 90.244,197.377 89.981 C 197.060 89.718,196.800 89.288,196.800 89.026 C 196.800 88.764,196.260 88.032,195.600 87.400 C 194.940 86.768,194.400 86.051,194.400 85.808 C 194.400 85.565,193.590 84.572,192.600 83.600 C 191.610 82.628,190.800 81.637,190.800 81.398 C 190.800 80.858,187.914 78.000,187.368 78.000 C 187.149 78.000,186.083 77.100,185.000 76.000 C 183.917 74.900,182.830 74.000,182.585 74.000 C 182.340 74.000,181.717 73.550,181.200 73.000 C 180.683 72.450,180.044 72.000,179.779 72.000 C 179.515 72.000,179.082 71.740,178.819 71.423 C 178.556 71.106,176.599 69.986,174.470 68.936 C 172.342 67.886,170.540 66.885,170.467 66.713 C 170.393 66.541,169.988 66.400,169.567 66.400 C 169.145 66.400,168.800 66.220,168.800 66.000 C 168.800 65.780,168.260 65.600,167.600 65.600 C 166.940 65.600,166.400 65.420,166.400 65.200 C 166.400 64.980,165.860 64.800,165.200 64.800 C 164.540 64.800,164.000 64.620,164.000 64.400 C 164.000 64.180,163.561 64.000,163.024 64.000 C 162.487 64.000,161.936 63.820,161.800 63.600 C 161.664 63.380,160.944 63.200,160.200 63.200 C 159.456 63.200,158.736 63.020,158.600 62.800 C 158.464 62.580,157.589 62.400,156.656 62.400 C 155.723 62.400,154.786 62.226,154.574 62.014 C 153.891 61.331,134.858 61.287,135.120 61.969 " stroke="none" fill="#f6cfa3" fill-rule="evenodd"></path><path id="SvgjsPath1001" d="M186.800 31.004 C 168.488 34.023,151.322 43.533,135.182 59.600 C 132.198 62.570,131.567 63.275,133.778 61.166 C 141.285 54.009,145.249 50.645,150.800 46.719 C 159.055 40.881,168.709 36.174,176.800 34.041 C 178.670 33.549,180.876 32.949,181.702 32.708 C 182.528 32.467,183.323 32.390,183.469 32.535 C 183.614 32.681,183.523 32.800,183.267 32.800 C 183.010 32.800,182.800 32.980,182.800 33.200 C 182.800 33.420,183.160 33.600,183.600 33.600 C 184.040 33.600,184.400 33.780,184.400 34.000 C 184.400 34.220,184.725 34.400,185.123 34.400 C 185.924 34.400,190.857 36.788,191.922 37.691 C 192.295 38.007,193.267 38.571,194.083 38.944 C 194.899 39.316,195.675 39.797,195.807 40.012 C 195.940 40.226,196.803 40.773,197.724 41.226 C 200.419 42.552,201.186 43.037,202.347 44.150 C 202.950 44.727,203.622 45.200,203.841 45.200 C 204.059 45.200,204.941 45.920,205.800 46.800 C 206.659 47.680,207.553 48.400,207.786 48.400 C 208.333 48.400,220.400 60.476,220.400 61.024 C 220.400 61.251,221.120 62.141,222.000 63.000 C 222.880 63.859,223.600 64.764,223.600 65.011 C 223.600 65.258,224.050 65.883,224.600 66.400 C 225.150 66.917,225.600 67.550,225.600 67.808 C 225.600 68.065,225.960 68.602,226.400 69.000 C 226.840 69.398,227.200 69.944,227.200 70.213 C 227.200 70.482,227.466 70.923,227.791 71.192 C 228.116 71.462,228.867 72.699,229.459 73.941 C 230.052 75.184,230.795 76.505,231.111 76.878 C 232.014 77.946,234.400 82.878,234.400 83.677 C 234.400 84.075,234.580 84.400,234.800 84.400 C 235.020 84.400,235.200 84.760,235.200 85.200 C 235.200 85.640,235.380 86.000,235.600 86.000 C 235.820 86.000,236.000 86.360,236.000 86.800 C 236.000 87.240,236.180 87.600,236.400 87.600 C 236.620 87.600,236.800 88.140,236.800 88.800 C 236.800 89.460,236.980 90.000,237.200 90.000 C 237.420 90.000,237.600 90.439,237.600 90.976 C 237.600 91.513,237.780 92.064,238.000 92.200 C 238.220 92.336,238.400 92.876,238.400 93.400 C 238.400 93.924,238.580 94.464,238.800 94.600 C 239.020 94.736,239.200 95.276,239.200 95.800 C 239.200 96.324,239.380 96.864,239.600 97.000 C 239.820 97.136,240.000 97.856,240.000 98.600 C 240.000 99.344,240.168 100.057,240.373 100.183 C 240.578 100.310,240.872 101.855,241.026 103.616 C 241.179 105.377,241.461 106.914,241.652 107.032 C 241.844 107.151,242.000 108.306,242.000 109.600 C 242.000 110.894,242.180 112.064,242.400 112.200 C 242.651 112.355,242.800 116.663,242.800 123.800 C 242.800 130.937,242.651 135.245,242.400 135.400 C 242.180 135.536,242.000 136.706,242.000 138.000 C 242.000 139.294,241.844 140.449,241.652 140.568 C 241.461 140.686,241.179 142.223,241.026 143.984 C 240.872 145.745,240.578 147.290,240.373 147.417 C 240.168 147.543,240.000 148.256,240.000 149.000 C 240.000 149.744,239.820 150.464,239.600 150.600 C 239.380 150.736,239.200 151.276,239.200 151.800 C 239.200 152.324,239.020 152.864,238.800 153.000 C 238.580 153.136,238.400 153.676,238.400 154.200 C 238.400 154.724,238.220 155.264,238.000 155.400 C 237.780 155.536,237.600 156.076,237.600 156.600 C 237.600 157.124,237.420 157.664,237.200 157.800 C 236.980 157.936,236.800 158.361,236.800 158.744 C 236.800 159.619,235.901 161.593,235.500 161.597 C 235.335 161.599,235.200 162.140,235.200 162.800 C 235.200 163.460,235.020 164.000,234.800 164.000 C 234.580 164.000,234.400 164.360,234.400 164.800 C 234.400 165.240,234.220 165.600,234.000 165.600 C 233.780 165.600,233.600 165.960,233.600 166.400 C 233.600 166.840,233.420 167.200,233.200 167.200 C 232.980 167.200,232.800 167.545,232.800 167.967 C 232.800 168.388,232.658 168.793,232.485 168.867 C 232.312 168.940,231.678 170.016,231.076 171.259 C 230.474 172.501,229.716 173.738,229.391 174.008 C 229.066 174.277,228.800 174.718,228.800 174.987 C 228.800 175.256,228.440 175.802,228.000 176.200 C 227.560 176.598,227.200 177.138,227.200 177.400 C 227.200 177.662,226.840 178.202,226.400 178.600 C 225.960 178.998,225.600 179.538,225.600 179.800 C 225.600 180.062,225.240 180.602,224.800 181.000 C 224.360 181.398,224.000 181.935,224.000 182.192 C 224.000 182.450,223.550 183.083,223.000 183.600 C 222.450 184.117,222.000 184.739,222.000 184.982 C 222.000 185.226,220.920 186.494,219.600 187.800 C 218.280 189.106,217.200 190.366,217.200 190.599 C 217.200 191.136,212.316 196.000,211.777 196.000 C 211.556 196.000,210.306 197.080,209.000 198.400 C 207.694 199.720,206.428 200.800,206.187 200.800 C 205.947 200.800,205.232 201.340,204.600 202.000 C 203.968 202.660,203.248 203.200,203.000 203.200 C 202.752 203.200,202.032 203.740,201.400 204.400 C 200.768 205.060,200.042 205.600,199.787 205.600 C 199.532 205.600,199.007 205.950,198.621 206.377 C 198.234 206.805,197.408 207.266,196.786 207.403 C 196.164 207.540,195.447 207.902,195.193 208.208 C 194.939 208.514,193.352 209.441,191.666 210.269 C 189.980 211.096,188.540 211.914,188.467 212.086 C 188.393 212.259,187.988 212.400,187.567 212.400 C 187.145 212.400,186.800 212.580,186.800 212.800 C 186.800 213.020,186.440 213.200,186.000 213.200 C 185.560 213.200,185.200 213.380,185.200 213.600 C 185.200 213.820,184.840 214.000,184.400 214.000 C 183.960 214.000,183.600 214.180,183.600 214.400 C 183.600 214.620,183.060 214.800,182.400 214.800 C 181.740 214.800,181.199 214.935,181.197 215.100 C 181.193 215.501,179.219 216.400,178.344 216.400 C 177.961 216.400,177.536 216.580,177.400 216.800 C 177.264 217.020,176.724 217.200,176.200 217.200 C 175.676 217.200,175.136 217.380,175.000 217.600 C 174.864 217.820,174.324 218.000,173.800 218.000 C 173.276 218.000,172.736 218.180,172.600 218.400 C 172.464 218.620,171.744 218.800,171.000 218.800 C 170.256 218.800,169.536 218.980,169.400 219.200 C 169.264 219.420,168.544 219.600,167.800 219.600 C 167.056 219.600,166.336 219.780,166.200 220.000 C 166.064 220.220,165.153 220.400,164.176 220.400 C 163.199 220.400,162.400 220.580,162.400 220.800 C 162.400 221.020,161.421 221.200,160.224 221.200 C 159.027 221.200,157.936 221.380,157.800 221.600 C 157.661 221.825,155.737 222.000,153.400 222.000 C 151.063 222.000,149.139 222.175,149.000 222.400 C 148.862 222.623,146.996 222.800,144.776 222.800 C 142.392 222.800,140.800 222.640,140.800 222.400 C 140.800 222.159,139.141 222.000,136.624 222.000 C 134.271 222.000,132.339 221.825,132.200 221.600 C 132.064 221.380,130.804 221.200,129.400 221.200 C 127.996 221.200,126.736 221.020,126.600 220.800 C 126.464 220.580,125.553 220.400,124.576 220.400 C 123.599 220.400,122.800 220.220,122.800 220.000 C 122.800 219.780,122.080 219.600,121.200 219.600 C 120.320 219.600,119.600 219.420,119.600 219.200 C 119.600 218.980,119.060 218.800,118.400 218.800 C 117.740 218.800,117.200 218.620,117.200 218.400 C 117.200 218.180,116.761 218.000,116.224 218.000 C 115.687 218.000,115.136 217.820,115.000 217.600 C 114.864 217.380,114.324 217.200,113.800 217.200 C 113.276 217.200,112.736 217.020,112.600 216.800 C 112.464 216.580,111.924 216.400,111.400 216.400 C 110.876 216.400,110.336 216.220,110.200 216.000 C 110.064 215.780,109.622 215.600,109.217 215.600 C 108.812 215.600,107.455 215.060,106.200 214.400 C 104.945 213.740,103.698 213.200,103.427 213.200 C 102.808 213.200,99.388 211.480,98.481 210.713 C 98.106 210.396,96.810 209.649,95.600 209.052 C 92.754 207.649,91.955 207.154,91.159 206.300 C 90.800 205.915,90.252 205.600,89.941 205.600 C 89.631 205.600,89.117 205.240,88.800 204.800 C 88.483 204.360,87.975 204.000,87.672 204.000 C 87.369 204.000,86.617 203.460,86.000 202.800 C 85.383 202.140,84.667 201.600,84.408 201.600 C 84.149 201.600,83.246 200.880,82.400 200.000 C 81.554 199.120,80.703 198.400,80.507 198.400 C 79.614 198.400,71.937 190.030,72.166 189.306 C 72.430 188.476,73.194 183.445,73.427 181.000 C 73.848 176.598,72.140 184.933,71.009 192.800 C 68.476 210.421,68.239 238.400,70.624 238.400 C 70.941 238.400,71.200 238.580,71.200 238.800 C 71.200 239.020,71.495 239.200,71.856 239.200 C 72.217 239.200,72.713 239.475,72.958 239.810 C 73.461 240.498,74.032 240.811,83.690 245.700 C 87.493 247.625,90.823 249.200,91.090 249.200 C 91.357 249.200,92.217 249.560,93.000 250.000 C 93.783 250.440,94.683 250.800,95.000 250.800 C 95.317 250.800,96.217 251.160,97.000 251.600 C 97.783 252.040,98.779 252.400,99.212 252.400 C 99.645 252.400,100.000 252.580,100.000 252.800 C 100.000 253.020,100.540 253.200,101.200 253.200 C 101.860 253.200,102.400 253.380,102.400 253.600 C 102.400 253.820,102.940 254.000,103.600 254.000 C 104.260 254.000,104.800 254.180,104.800 254.400 C 104.800 254.620,105.419 254.800,106.176 254.800 C 106.933 254.800,107.664 254.980,107.800 255.200 C 107.936 255.420,108.476 255.600,109.000 255.600 C 109.524 255.600,110.064 255.780,110.200 256.000 C 110.336 256.220,111.056 256.400,111.800 256.400 C 112.544 256.400,113.264 256.580,113.400 256.800 C 113.536 257.020,114.436 257.200,115.400 257.200 C 116.364 257.200,117.264 257.380,117.400 257.600 C 117.536 257.820,118.436 258.000,119.400 258.000 C 120.364 258.000,121.264 258.180,121.400 258.400 C 121.536 258.620,122.681 258.800,123.944 258.800 C 125.247 258.800,126.456 259.016,126.740 259.300 C 127.125 259.685,131.285 259.800,144.800 259.800 C 158.315 259.800,162.475 259.685,162.860 259.300 C 163.135 259.025,164.303 258.800,165.456 258.800 C 166.609 258.800,167.664 258.620,167.800 258.400 C 167.936 258.180,169.016 258.000,170.200 258.000 C 171.384 258.000,172.464 257.820,172.600 257.600 C 172.736 257.380,173.456 257.200,174.200 257.200 C 174.944 257.200,175.664 257.020,175.800 256.800 C 175.936 256.580,176.667 256.400,177.424 256.400 C 178.181 256.400,178.800 256.220,178.800 256.000 C 178.800 255.780,179.520 255.600,180.400 255.600 C 181.280 255.600,182.000 255.420,182.000 255.200 C 182.000 254.980,182.439 254.800,182.976 254.800 C 183.513 254.800,184.064 254.620,184.200 254.400 C 184.336 254.180,184.971 254.000,185.611 254.000 C 186.252 254.000,187.417 253.640,188.200 253.200 C 188.983 252.760,189.968 252.400,190.389 252.400 C 190.809 252.400,191.264 252.220,191.400 252.000 C 191.536 251.780,191.991 251.600,192.411 251.600 C 192.832 251.600,193.817 251.240,194.600 250.800 C 195.383 250.360,196.272 250.000,196.574 250.000 C 197.232 250.000,200.543 248.328,200.733 247.900 C 200.807 247.735,201.392 247.600,202.033 247.600 C 202.675 247.600,203.200 247.420,203.200 247.200 C 203.200 246.980,203.560 246.800,204.000 246.800 C 204.440 246.800,204.800 246.620,204.800 246.400 C 204.800 246.180,205.160 246.000,205.600 246.000 C 206.040 246.000,206.400 245.854,206.400 245.675 C 206.400 245.496,207.034 245.101,207.809 244.797 C 208.583 244.493,209.511 243.919,209.871 243.522 C 210.230 243.125,210.686 242.800,210.884 242.800 C 211.496 242.800,214.737 241.225,215.000 240.800 C 215.137 240.579,216.018 240.047,216.959 239.619 C 217.900 239.190,218.901 238.561,219.184 238.220 C 219.466 237.879,219.912 237.600,220.174 237.600 C 220.436 237.600,221.168 237.060,221.800 236.400 C 222.432 235.740,223.158 235.200,223.413 235.200 C 223.668 235.200,224.202 234.840,224.600 234.400 C 224.998 233.960,225.532 233.600,225.787 233.600 C 226.042 233.600,226.768 233.060,227.400 232.400 C 228.032 231.740,228.748 231.200,228.990 231.200 C 229.232 231.200,230.317 230.300,231.400 229.200 C 232.483 228.100,233.555 227.200,233.781 227.200 C 234.326 227.200,248.400 213.130,248.400 212.585 C 248.400 212.353,249.120 211.459,250.000 210.600 C 250.880 209.741,251.600 208.841,251.600 208.600 C 251.600 208.359,252.320 207.459,253.200 206.600 C 254.080 205.741,254.800 204.832,254.800 204.581 C 254.800 204.330,255.160 203.798,255.600 203.400 C 256.040 203.002,256.400 202.462,256.400 202.200 C 256.400 201.938,256.760 201.398,257.200 201.000 C 257.640 200.602,258.000 200.093,258.000 199.870 C 258.000 199.646,258.299 199.133,258.664 198.729 C 259.378 197.940,259.938 197.013,261.037 194.800 C 261.419 194.030,262.037 193.040,262.409 192.600 C 262.781 192.160,263.336 191.215,263.641 190.500 C 263.946 189.785,264.331 189.200,264.498 189.200 C 264.664 189.200,264.800 188.840,264.800 188.400 C 264.800 187.960,264.980 187.600,265.200 187.600 C 265.420 187.600,265.600 187.240,265.600 186.800 C 265.600 186.360,265.780 186.000,266.000 186.000 C 266.220 186.000,266.400 185.640,266.400 185.200 C 266.400 184.760,266.580 184.400,266.800 184.400 C 267.020 184.400,267.200 184.040,267.200 183.600 C 267.200 183.160,267.380 182.800,267.600 182.800 C 267.820 182.800,268.000 182.455,268.000 182.033 C 268.000 181.612,268.135 181.207,268.300 181.133 C 268.728 180.943,270.400 177.632,270.400 176.974 C 270.400 176.672,270.760 175.783,271.200 175.000 C 271.640 174.217,272.000 173.317,272.000 173.000 C 272.000 172.683,272.360 171.783,272.800 171.000 C 273.240 170.217,273.600 169.232,273.600 168.811 C 273.600 168.391,273.780 167.936,274.000 167.800 C 274.220 167.664,274.400 167.124,274.400 166.600 C 274.400 166.076,274.580 165.536,274.800 165.400 C 275.020 165.264,275.200 164.724,275.200 164.200 C 275.200 163.676,275.362 163.147,275.559 163.025 C 275.757 162.903,276.045 161.542,276.200 160.002 C 276.355 158.461,276.643 157.200,276.841 157.200 C 277.038 157.200,277.200 156.581,277.200 155.824 C 277.200 155.067,277.380 154.336,277.600 154.200 C 277.820 154.064,278.000 153.164,278.000 152.200 C 278.000 151.236,278.180 150.336,278.400 150.200 C 278.620 150.064,278.800 149.164,278.800 148.200 C 278.800 147.236,278.980 146.336,279.200 146.200 C 279.420 146.064,279.600 144.804,279.600 143.400 C 279.600 141.996,279.780 140.736,280.000 140.600 C 280.223 140.462,280.400 138.604,280.400 136.400 C 280.400 134.196,280.577 132.338,280.800 132.200 C 281.044 132.049,281.200 128.937,281.200 124.200 C 281.200 119.463,281.044 116.351,280.800 116.200 C 280.573 116.060,280.400 114.070,280.400 111.600 C 280.400 109.130,280.227 107.140,280.000 107.000 C 279.780 106.864,279.600 105.784,279.600 104.600 C 279.600 103.416,279.420 102.336,279.200 102.200 C 278.980 102.064,278.800 100.984,278.800 99.800 C 278.800 98.616,278.620 97.536,278.400 97.400 C 278.180 97.264,278.000 96.353,278.000 95.376 C 278.000 94.399,277.820 93.600,277.600 93.600 C 277.380 93.600,277.200 92.981,277.200 92.224 C 277.200 91.467,277.044 90.751,276.853 90.633 C 276.662 90.514,276.383 89.339,276.234 88.021 C 276.085 86.703,275.791 85.518,275.582 85.389 C 275.372 85.259,275.200 84.724,275.200 84.200 C 275.200 83.676,275.020 83.136,274.800 83.000 C 274.580 82.864,274.400 82.324,274.400 81.800 C 274.400 81.276,274.220 80.736,274.000 80.600 C 273.780 80.464,273.600 79.924,273.600 79.400 C 273.600 78.876,273.420 78.336,273.200 78.200 C 272.980 78.064,272.800 77.524,272.800 77.000 C 272.800 76.476,272.620 75.936,272.400 75.800 C 272.180 75.664,272.000 75.220,272.000 74.814 C 272.000 74.016,270.391 70.685,269.900 70.467 C 269.735 70.393,269.600 69.985,269.600 69.559 C 269.600 67.917,266.655 64.293,259.749 57.436 C 256.563 54.274,249.702 48.653,245.800 46.008 C 244.700 45.263,243.710 44.551,243.600 44.426 C 243.490 44.302,242.995 43.975,242.500 43.700 C 242.005 43.425,241.195 42.975,240.700 42.700 C 240.205 42.425,239.710 42.084,239.600 41.942 C 238.519 40.549,224.051 34.563,217.600 32.840 C 209.304 30.624,194.468 29.740,186.800 31.004 M125.893 69.195 C 122.803 72.867,118.827 77.834,117.403 79.800 C 115.442 82.508,116.943 80.815,120.419 76.400 C 122.237 74.090,124.883 70.895,126.299 69.300 C 127.714 67.705,128.721 66.412,128.536 66.427 C 128.351 66.441,127.162 67.687,125.893 69.195 M115.125 82.900 C 113.218 85.457,112.249 86.940,112.648 86.694 C 113.121 86.402,116.538 81.600,116.273 81.600 C 116.175 81.600,115.659 82.185,115.125 82.900 M107.853 93.591 C 106.853 95.102,106.415 96.196,107.136 95.380 C 107.692 94.752,109.279 92.000,109.086 92.000 C 108.987 92.000,108.432 92.716,107.853 93.591 M104.068 99.900 C 101.174 104.885,99.922 107.200,100.120 107.200 C 100.227 107.200,101.355 105.355,102.626 103.100 C 103.897 100.845,105.196 98.595,105.514 98.100 C 105.832 97.605,105.989 97.200,105.864 97.200 C 105.738 97.200,104.930 98.415,104.068 99.900 M91.072 125.419 C 90.132 127.389,90.264 127.724,91.247 125.862 C 91.693 125.016,91.987 124.254,91.901 124.167 C 91.814 124.081,91.441 124.644,91.072 125.419 M88.832 130.500 C 88.640 130.995,87.918 132.818,87.226 134.551 C 86.534 136.284,86.039 137.772,86.125 137.859 C 86.212 137.945,86.650 137.068,87.099 135.908 C 87.547 134.749,88.291 132.855,88.751 131.700 C 89.212 130.545,89.496 129.600,89.384 129.600 C 89.272 129.600,89.023 130.005,88.832 130.500 M83.800 143.200 C 83.650 143.673,83.617 144.150,83.727 144.260 C 83.837 144.370,84.050 144.073,84.200 143.600 C 84.350 143.127,84.383 142.650,84.273 142.540 C 84.163 142.430,83.950 142.727,83.800 143.200 M82.646 146.646 C 82.292 147.685,82.072 148.605,82.156 148.690 C 82.241 148.774,82.600 147.993,82.954 146.954 C 83.308 145.915,83.528 144.995,83.444 144.910 C 83.359 144.826,83.000 145.607,82.646 146.646 M80.213 153.813 C 79.353 156.771,79.645 157.063,80.560 154.160 C 80.947 152.933,81.176 151.842,81.069 151.735 C 80.962 151.628,80.577 152.563,80.213 153.813 M78.664 158.870 C 78.328 160.042,77.575 162.678,76.990 164.730 C 76.405 166.781,76.024 168.557,76.143 168.677 C 76.263 168.796,76.480 168.378,76.626 167.747 C 76.771 167.116,77.498 164.453,78.241 161.829 C 78.983 159.204,79.519 156.986,79.432 156.899 C 79.345 156.812,78.999 157.699,78.664 158.870 M75.649 169.600 C 75.616 169.930,75.489 170.650,75.367 171.200 C 75.175 172.064,75.207 172.103,75.599 171.488 C 75.848 171.097,75.975 170.377,75.881 169.888 C 75.786 169.400,75.682 169.270,75.649 169.600 M74.653 173.741 C 74.486 174.588,74.441 175.375,74.555 175.488 C 74.858 175.791,75.297 173.785,75.114 172.932 C 75.020 172.490,74.837 172.811,74.653 173.741 M73.853 177.341 C 73.686 178.188,73.641 178.975,73.755 179.088 C 74.058 179.391,74.497 177.385,74.314 176.532 C 74.220 176.090,74.037 176.411,73.853 177.341 " stroke="none" fill="#ecbc89" fill-rule="evenodd"></path><path id="SvgjsPath1000" d="M186.333 20.378 C 186.260 20.585,185.173 20.796,183.918 20.845 C 182.663 20.895,181.729 21.085,181.842 21.268 C 181.955 21.450,181.677 21.600,181.224 21.600 C 180.771 21.600,180.400 21.780,180.400 22.000 C 180.400 22.220,180.029 22.400,179.576 22.400 C 179.123 22.400,178.864 22.220,179.000 22.000 C 179.484 21.217,178.314 21.616,177.534 22.500 C 177.097 22.995,176.853 23.175,176.993 22.900 C 177.157 22.577,176.947 22.400,176.400 22.400 C 175.934 22.400,175.638 22.538,175.742 22.707 C 175.846 22.875,175.497 23.218,174.965 23.469 C 174.434 23.720,174.101 23.761,174.225 23.560 C 174.467 23.168,172.533 23.910,171.700 24.527 C 171.373 24.770,171.200 24.735,171.200 24.425 C 171.200 24.165,171.017 24.066,170.793 24.204 C 170.570 24.342,170.474 24.597,170.581 24.770 C 170.688 24.943,170.304 24.994,169.728 24.884 C 168.915 24.729,168.752 24.809,168.999 25.242 C 169.245 25.673,169.203 25.695,168.817 25.338 C 168.218 24.785,165.733 25.682,164.927 26.741 C 164.505 27.295,164.422 27.304,164.407 26.800 C 164.391 26.303,164.328 26.295,164.039 26.751 C 163.835 27.072,163.478 27.172,163.183 26.989 C 162.889 26.808,162.776 26.838,162.914 27.061 C 163.045 27.273,162.716 27.773,162.184 28.173 C 161.651 28.573,161.329 29.086,161.469 29.312 C 161.612 29.543,161.529 29.603,161.279 29.449 C 161.035 29.298,160.937 28.908,161.062 28.583 C 161.218 28.176,161.101 28.063,160.686 28.222 C 160.309 28.367,160.114 28.892,160.165 29.627 C 160.209 30.272,160.056 30.778,159.823 30.752 C 158.817 30.640,158.372 30.832,158.638 31.262 C 158.804 31.530,158.749 31.616,158.507 31.466 C 158.278 31.325,157.871 31.473,157.603 31.796 C 157.250 32.222,156.915 32.276,156.384 31.992 C 155.331 31.428,155.027 31.509,155.600 32.200 C 155.874 32.530,156.031 32.814,155.949 32.831 C 154.555 33.117,154.359 33.085,154.544 32.602 C 154.657 32.307,154.491 31.967,154.175 31.846 C 153.558 31.609,153.455 31.956,153.843 32.967 C 153.976 33.315,154.506 33.600,155.019 33.600 C 155.533 33.600,156.064 33.780,156.200 34.000 C 156.336 34.220,157.596 34.400,159.000 34.400 C 160.404 34.400,161.664 34.580,161.800 34.800 C 161.936 35.020,162.667 35.200,163.424 35.200 C 164.181 35.200,164.800 35.403,164.800 35.651 C 164.800 36.284,167.399 35.818,169.483 34.811 C 170.406 34.365,171.352 34.000,171.586 34.000 C 172.002 34.000,172.492 33.794,174.295 32.862 C 174.787 32.608,175.631 32.400,176.171 32.400 C 176.711 32.400,177.252 32.239,177.374 32.042 C 177.495 31.845,178.271 31.584,179.097 31.460 C 179.924 31.337,182.670 30.879,185.200 30.441 C 202.518 27.447,226.610 32.284,240.600 41.563 C 241.480 42.147,242.650 42.850,243.200 43.127 C 249.303 46.191,264.789 60.125,272.045 69.081 C 273.434 70.797,274.668 72.290,274.786 72.400 C 275.197 72.783,279.853 79.019,281.656 81.600 C 288.104 90.831,297.314 107.207,301.959 117.700 C 302.422 118.745,303.143 120.365,303.563 121.300 C 307.895 130.949,314.302 149.208,317.213 160.200 C 317.679 161.960,318.322 164.390,318.643 165.600 C 333.186 220.478,327.633 279.513,304.311 317.985 C 256.268 397.234,134.643 396.646,89.090 316.944 C 71.342 285.890,63.900 237.617,70.014 193.200 C 70.241 191.550,70.527 189.210,70.649 188.000 C 70.771 186.790,71.035 185.629,71.235 185.420 C 71.436 185.211,71.600 184.277,71.600 183.344 C 71.600 182.411,71.780 181.536,72.000 181.400 C 72.830 180.887,72.443 178.180,71.400 177.200 C 70.850 176.683,70.400 176.050,70.400 175.792 C 70.400 175.535,70.040 174.998,69.600 174.600 C 69.160 174.202,68.800 173.662,68.800 173.400 C 68.800 173.138,68.440 172.598,68.000 172.200 C 67.560 171.802,67.199 171.279,67.197 171.038 C 67.195 170.797,66.771 170.404,66.255 170.165 C 65.295 169.720,65.249 169.823,65.549 171.724 C 65.577 171.902,65.825 171.933,66.100 171.794 C 66.375 171.655,66.302 171.787,65.937 172.087 C 65.433 172.503,65.374 172.810,65.688 173.372 C 65.976 173.886,65.973 174.031,65.679 173.849 C 65.447 173.706,65.132 173.985,64.978 174.469 C 64.708 175.319,64.679 175.323,64.149 174.598 C 63.748 174.049,63.600 174.003,63.600 174.427 C 63.600 174.746,63.986 175.249,64.459 175.544 C 65.152 175.977,65.210 176.148,64.759 176.434 C 63.971 176.933,63.501 176.884,63.838 176.338 C 64.011 176.059,63.948 175.985,63.679 176.151 C 63.435 176.302,63.348 176.719,63.485 177.078 C 63.653 177.515,63.581 177.635,63.268 177.442 C 62.984 177.267,62.800 177.408,62.800 177.800 C 62.800 178.156,62.980 178.336,63.200 178.200 C 63.783 177.840,63.689 178.525,63.033 179.422 C 62.633 179.970,62.589 180.345,62.882 180.699 C 63.158 181.032,63.162 181.200,62.892 181.200 C 62.668 181.200,62.378 181.479,62.247 181.821 C 62.111 182.177,62.178 182.337,62.405 182.197 C 62.993 181.834,62.883 182.538,62.213 183.424 C 61.552 184.297,61.413 184.963,61.963 184.623 C 62.162 184.500,62.227 184.774,62.107 185.233 C 61.937 185.884,61.806 185.950,61.511 185.534 C 61.261 185.180,61.208 185.530,61.354 186.575 C 61.478 187.462,61.384 188.379,61.138 188.675 C 60.898 188.964,60.836 189.200,61.000 189.200 C 61.164 189.200,61.051 189.505,60.749 189.877 C 60.275 190.461,60.282 190.505,60.800 190.200 C 61.280 189.917,61.310 189.962,60.951 190.423 C 60.705 190.740,60.558 191.347,60.627 191.772 C 60.695 192.197,60.509 193.123,60.213 193.830 C 59.821 194.769,59.795 195.235,60.118 195.558 C 60.441 195.881,60.403 196.002,59.980 196.006 C 59.487 196.011,59.490 196.070,60.000 196.400 C 60.330 196.613,60.396 196.791,60.146 196.794 C 59.854 196.798,59.740 197.449,59.827 198.612 C 59.908 199.693,59.809 200.329,59.581 200.189 C 59.372 200.059,59.200 200.244,59.200 200.600 C 59.200 200.970,59.389 201.130,59.641 200.974 C 59.884 200.824,59.834 201.129,59.530 201.651 C 59.164 202.278,58.980 203.854,58.988 206.300 C 58.995 208.335,58.887 210.000,58.748 210.000 C 58.386 210.000,58.299 242.714,58.660 243.297 C 58.825 243.565,58.990 245.789,59.025 248.240 C 59.060 250.692,59.231 252.927,59.405 253.208 C 59.578 253.488,59.744 254.997,59.773 256.559 C 59.801 258.122,59.944 259.592,60.090 259.826 C 60.236 260.060,60.409 261.365,60.475 262.726 C 60.540 264.087,60.691 265.200,60.810 265.200 C 61.015 265.200,61.122 265.868,61.355 268.624 C 61.412 269.297,61.571 270.030,61.709 270.253 C 61.847 270.475,62.004 271.410,62.058 272.329 C 62.112 273.248,62.301 274.000,62.478 274.000 C 62.655 274.000,62.800 274.531,62.800 275.180 C 62.800 275.830,63.087 277.405,63.439 278.680 C 63.790 279.956,64.232 281.630,64.420 282.400 C 64.609 283.170,64.963 284.610,65.206 285.600 C 65.450 286.590,65.749 287.897,65.871 288.505 C 65.993 289.113,66.251 289.708,66.446 289.829 C 66.641 289.949,66.800 290.562,66.800 291.190 C 66.800 291.819,66.978 292.393,67.197 292.467 C 67.415 292.540,67.634 293.095,67.684 293.700 C 67.734 294.305,67.915 294.800,68.087 294.800 C 68.259 294.800,68.400 295.250,68.400 295.800 C 68.400 296.350,68.580 296.800,68.800 296.800 C 69.020 296.800,69.200 297.138,69.200 297.551 C 69.200 297.964,69.447 298.909,69.748 299.651 C 70.049 300.393,70.206 301.250,70.096 301.556 C 69.974 301.896,70.072 302.003,70.348 301.832 C 70.639 301.652,70.800 301.917,70.800 302.576 C 70.800 303.139,70.960 303.600,71.157 303.600 C 71.353 303.600,71.637 304.095,71.787 304.700 C 72.060 305.794,72.933 307.967,73.634 309.295 C 73.835 309.677,74.000 310.262,74.000 310.595 C 74.000 310.928,74.180 311.200,74.400 311.200 C 74.620 311.200,74.800 311.470,74.800 311.800 C 74.800 312.130,74.980 312.400,75.200 312.400 C 75.420 312.400,75.555 312.544,75.500 312.720 C 75.336 313.244,76.519 316.000,76.908 316.000 C 77.105 316.000,77.192 316.223,77.101 316.496 C 77.010 316.769,77.177 317.234,77.472 317.529 C 77.766 317.823,77.905 318.230,77.780 318.432 C 77.655 318.635,77.743 318.800,77.976 318.800 C 78.209 318.800,78.400 319.070,78.400 319.400 C 78.400 319.730,78.580 320.000,78.800 320.000 C 79.020 320.000,79.200 320.270,79.200 320.600 C 79.200 320.930,79.380 321.200,79.600 321.200 C 79.820 321.200,80.000 321.560,80.000 322.000 C 80.000 322.440,80.158 322.800,80.351 322.800 C 80.545 322.800,80.943 323.385,81.237 324.100 C 81.530 324.815,82.078 325.734,82.454 326.142 C 82.830 326.550,83.354 327.405,83.617 328.042 C 83.881 328.679,84.255 329.200,84.449 329.200 C 84.642 329.200,84.800 329.425,84.800 329.700 C 84.801 329.975,85.247 330.718,85.792 331.352 C 86.337 331.986,86.710 332.622,86.621 332.766 C 86.532 332.909,86.986 333.446,87.630 333.958 C 88.273 334.471,88.800 335.063,88.800 335.274 C 88.800 335.485,89.025 335.885,89.300 336.163 C 89.575 336.441,90.160 337.175,90.600 337.795 C 91.040 338.415,91.715 339.254,92.100 339.661 C 92.485 340.067,92.687 340.400,92.549 340.400 C 92.412 340.400,93.087 341.151,94.049 342.069 C 95.012 342.987,95.522 343.572,95.181 343.369 C 94.841 343.166,94.906 343.315,95.325 343.700 C 95.745 344.085,95.997 344.400,95.884 344.400 C 95.772 344.400,96.310 345.030,97.080 345.800 C 97.850 346.570,98.642 347.200,98.840 347.200 C 99.038 347.200,99.200 347.374,99.200 347.587 C 99.200 348.090,101.910 350.800,102.413 350.800 C 102.626 350.800,102.801 351.025,102.801 351.300 C 102.802 351.575,103.341 352.160,104.000 352.600 C 104.659 353.040,105.198 353.655,105.199 353.967 C 105.199 354.278,105.312 354.421,105.450 354.284 C 105.587 354.146,105.992 354.350,106.350 354.736 C 106.707 355.122,106.910 355.241,106.800 355.000 C 106.690 354.759,106.893 354.878,107.250 355.264 C 107.608 355.650,108.013 355.854,108.150 355.716 C 108.288 355.579,108.400 355.690,108.400 355.962 C 108.400 356.605,109.431 357.636,109.752 357.314 C 109.889 357.178,110.000 357.272,110.000 357.523 C 110.000 357.774,110.495 358.242,111.100 358.564 C 111.705 358.885,112.687 359.609,113.283 360.174 C 113.878 360.738,114.537 361.200,114.747 361.200 C 114.957 361.200,115.583 361.740,116.139 362.400 C 116.694 363.060,117.430 363.600,117.774 363.600 C 118.118 363.600,118.400 363.780,118.400 364.000 C 118.400 364.220,118.681 364.400,119.024 364.400 C 119.393 364.400,119.531 364.588,119.362 364.862 C 119.193 365.136,119.251 365.215,119.506 365.058 C 119.742 364.912,120.207 365.064,120.539 365.396 C 120.871 365.728,121.346 366.000,121.595 366.000 C 121.844 366.000,121.936 366.180,121.800 366.400 C 121.664 366.620,121.846 366.800,122.205 366.800 C 122.564 366.800,123.129 367.072,123.461 367.404 C 123.793 367.736,124.230 367.905,124.432 367.780 C 124.635 367.655,124.800 367.743,124.800 367.976 C 124.800 368.209,125.042 368.400,125.338 368.400 C 125.634 368.400,126.202 368.760,126.600 369.200 C 126.998 369.640,127.656 370.000,128.062 370.000 C 128.468 370.000,128.800 370.191,128.800 370.424 C 128.800 370.657,128.968 370.744,129.172 370.617 C 129.377 370.491,129.651 370.559,129.781 370.770 C 129.912 370.981,130.869 371.569,131.909 372.076 C 132.949 372.584,134.040 373.227,134.332 373.504 C 134.625 373.781,135.050 373.893,135.277 373.752 C 135.504 373.612,135.821 373.710,135.981 373.969 C 136.141 374.228,136.661 374.469,137.136 374.505 C 137.611 374.541,138.000 374.712,138.000 374.885 C 138.000 375.058,138.360 375.200,138.800 375.200 C 139.240 375.200,139.600 375.380,139.600 375.600 C 139.600 375.820,139.949 376.000,140.376 376.000 C 140.803 376.000,141.264 376.180,141.400 376.400 C 141.536 376.620,142.097 376.800,142.647 376.800 C 143.212 376.800,143.540 376.974,143.400 377.200 C 143.190 377.540,144.309 377.804,145.300 377.647 C 145.465 377.621,145.600 377.780,145.600 378.000 C 145.600 378.220,146.061 378.400,146.624 378.400 C 147.204 378.400,147.540 378.573,147.400 378.800 C 147.256 379.033,147.663 379.200,148.376 379.200 C 149.049 379.200,149.600 379.380,149.600 379.600 C 149.600 379.820,150.140 380.000,150.800 380.000 C 151.460 380.000,152.000 380.180,152.000 380.400 C 152.000 380.620,152.529 380.800,153.176 380.800 C 153.823 380.800,154.464 380.980,154.600 381.200 C 154.736 381.420,155.366 381.600,156.000 381.600 C 156.634 381.600,157.264 381.780,157.400 382.000 C 157.536 382.220,158.267 382.400,159.024 382.400 C 159.781 382.400,160.400 382.560,160.400 382.756 C 160.400 383.098,161.522 383.366,165.000 383.856 C 165.880 383.980,166.771 384.244,166.980 384.441 C 167.189 384.638,168.188 384.800,169.200 384.800 C 170.212 384.800,171.211 384.970,171.420 385.178 C 171.629 385.385,172.666 385.599,173.723 385.654 C 174.781 385.708,175.720 385.871,175.810 386.016 C 175.899 386.161,177.014 386.313,178.286 386.355 C 180.968 386.442,181.649 386.531,182.200 386.866 C 182.420 387.000,184.580 387.154,187.000 387.208 C 194.040 387.365,194.332 387.385,194.138 387.700 C 194.036 387.865,194.244 388.000,194.600 388.000 C 194.956 388.000,195.158 387.856,195.049 387.679 C 194.940 387.503,196.134 387.495,197.704 387.663 C 199.306 387.834,200.746 387.811,200.988 387.610 C 201.226 387.413,203.891 387.213,206.910 387.166 C 209.930 387.119,212.400 386.928,212.400 386.740 C 212.400 386.553,213.750 386.400,215.400 386.400 C 217.133 386.400,218.400 386.231,218.400 386.000 C 218.400 385.780,219.289 385.600,220.376 385.600 C 221.463 385.600,222.464 385.420,222.600 385.200 C 222.736 384.980,223.611 384.800,224.544 384.800 C 225.477 384.800,226.411 384.630,226.620 384.421 C 226.829 384.213,227.777 383.997,228.726 383.942 C 229.675 383.886,230.540 383.696,230.649 383.520 C 230.758 383.344,231.276 383.200,231.800 383.200 C 232.324 383.200,232.864 383.020,233.000 382.800 C 233.136 382.580,233.777 382.400,234.424 382.400 C 235.095 382.400,235.603 382.185,235.606 381.900 C 235.610 381.567,235.742 381.600,236.000 382.000 C 236.258 382.400,236.390 382.433,236.394 382.100 C 236.397 381.825,236.749 381.600,237.176 381.600 C 237.603 381.600,238.064 381.420,238.200 381.200 C 238.336 380.980,239.056 380.800,239.800 380.800 C 240.544 380.800,241.264 380.620,241.400 380.400 C 241.536 380.180,242.076 380.000,242.600 380.000 C 243.124 380.000,243.664 379.820,243.800 379.600 C 243.936 379.380,244.397 379.200,244.824 379.200 C 245.251 379.200,245.600 379.020,245.600 378.800 C 245.600 378.580,246.039 378.400,246.576 378.400 C 247.113 378.400,247.664 378.220,247.800 378.000 C 247.936 377.780,248.397 377.600,248.824 377.600 C 249.251 377.600,249.600 377.420,249.600 377.200 C 249.600 376.980,250.151 376.800,250.824 376.800 C 251.537 376.800,251.944 376.633,251.800 376.400 C 251.664 376.180,251.798 376.000,252.097 376.000 C 252.838 376.000,254.793 375.068,254.797 374.713 C 254.799 374.554,255.052 374.522,255.360 374.640 C 255.667 374.758,256.040 374.659,256.187 374.421 C 256.335 374.182,256.602 374.078,256.782 374.189 C 256.962 374.300,257.332 374.123,257.604 373.796 C 257.876 373.468,258.436 373.200,258.849 373.200 C 259.262 373.200,259.600 372.990,259.600 372.733 C 259.600 372.477,259.713 372.379,259.851 372.517 C 260.088 372.754,262.370 371.769,262.800 371.244 C 262.910 371.110,263.765 370.595,264.700 370.100 C 265.635 369.605,267.165 368.795,268.100 368.300 C 269.035 367.805,269.890 367.310,270.000 367.200 C 270.460 366.740,272.788 365.200,273.023 365.200 C 273.164 365.200,273.801 364.641,274.440 363.958 C 275.078 363.274,275.600 362.942,275.600 363.219 C 275.600 363.496,275.936 363.335,276.347 362.861 C 276.758 362.388,277.282 362.000,277.513 362.000 C 277.743 362.000,278.585 361.365,279.385 360.588 C 280.184 359.812,281.038 359.300,281.281 359.450 C 281.548 359.615,281.611 359.541,281.438 359.262 C 281.281 359.008,281.361 358.800,281.616 358.800 C 281.871 358.800,282.578 358.266,283.187 357.614 C 283.796 356.962,284.408 356.542,284.547 356.681 C 284.686 356.820,284.800 356.713,284.800 356.443 C 284.800 356.173,284.957 356.050,285.150 356.169 C 285.342 356.288,285.835 355.938,286.245 355.392 C 286.654 354.847,287.140 354.400,287.324 354.400 C 287.844 354.400,288.791 353.324,288.514 353.048 C 288.378 352.911,288.555 352.800,288.906 352.800 C 289.258 352.800,289.660 352.440,289.800 352.000 C 289.940 351.560,290.188 351.200,290.352 351.200 C 290.515 351.200,291.085 350.795,291.617 350.300 C 292.149 349.805,292.723 349.445,292.892 349.500 C 293.062 349.555,293.200 349.319,293.200 348.976 C 293.200 348.633,293.380 348.464,293.600 348.600 C 293.820 348.736,294.000 348.556,294.000 348.200 C 294.000 347.844,294.142 347.640,294.315 347.748 C 294.488 347.855,294.864 347.415,295.149 346.771 C 295.434 346.127,295.928 345.600,296.246 345.600 C 296.565 345.600,296.946 345.285,297.094 344.900 C 297.241 344.515,298.217 343.345,299.262 342.300 C 300.307 341.255,301.054 340.400,300.923 340.400 C 300.791 340.400,301.475 339.617,302.442 338.660 C 304.340 336.781,305.090 335.797,305.458 334.700 C 305.588 334.315,305.856 334.000,306.055 334.000 C 306.254 334.000,306.635 333.505,306.902 332.900 C 307.169 332.295,307.904 331.305,308.536 330.700 C 309.168 330.095,309.473 329.600,309.214 329.600 C 308.915 329.600,308.967 329.375,309.357 328.985 C 309.695 328.647,310.287 327.837,310.672 327.185 C 311.057 326.533,311.514 326.000,311.686 326.000 C 311.859 326.000,312.000 325.752,312.000 325.449 C 312.000 325.146,312.273 324.671,312.607 324.394 C 312.941 324.117,313.502 323.285,313.853 322.545 C 314.204 321.805,314.651 321.200,314.846 321.200 C 315.041 321.200,315.200 320.930,315.200 320.600 C 315.200 320.270,315.380 320.000,315.600 320.000 C 315.820 320.000,316.000 319.788,316.000 319.528 C 316.000 318.773,317.710 315.200,318.071 315.200 C 318.252 315.200,318.400 314.840,318.400 314.400 C 318.400 313.960,318.580 313.600,318.800 313.600 C 319.020 313.600,319.200 313.240,319.200 312.800 C 319.200 312.360,319.380 312.000,319.600 312.000 C 319.820 312.000,319.960 311.865,319.911 311.700 C 319.777 311.251,320.949 308.800,321.298 308.800 C 321.464 308.800,321.600 308.531,321.600 308.202 C 321.600 307.873,322.249 306.208,323.041 304.502 C 323.834 302.796,324.509 301.012,324.541 300.538 C 324.574 300.064,324.735 299.760,324.900 299.862 C 325.065 299.964,325.200 299.597,325.200 299.047 C 325.200 298.497,325.380 297.936,325.600 297.800 C 325.820 297.664,326.000 297.013,326.000 296.353 C 326.000 295.655,326.167 295.256,326.400 295.400 C 326.633 295.544,326.800 295.137,326.800 294.424 C 326.800 293.751,326.980 293.200,327.200 293.200 C 327.420 293.200,327.600 292.660,327.600 292.000 C 327.600 291.340,327.780 290.800,328.000 290.800 C 328.220 290.800,328.400 290.271,328.400 289.624 C 328.400 288.977,328.580 288.336,328.800 288.200 C 329.020 288.064,329.200 287.513,329.200 286.976 C 329.200 286.439,329.380 286.000,329.600 286.000 C 329.820 286.000,330.000 285.269,330.000 284.376 C 330.000 283.483,330.151 282.846,330.336 282.960 C 330.520 283.074,330.696 282.524,330.725 281.737 C 330.755 280.951,330.954 280.096,331.168 279.838 C 331.382 279.580,331.602 278.611,331.657 277.685 C 331.712 276.758,331.882 276.000,332.036 276.000 C 332.313 276.000,332.619 274.403,333.054 270.700 C 333.177 269.655,333.408 268.800,333.567 268.800 C 333.727 268.800,333.900 267.869,333.951 266.731 C 334.003 265.593,334.216 264.345,334.423 263.957 C 334.630 263.570,334.800 262.341,334.800 261.226 C 334.800 260.112,334.980 259.200,335.200 259.200 C 335.435 259.200,335.600 257.800,335.600 255.800 C 335.600 253.930,335.749 252.400,335.932 252.400 C 336.115 252.400,336.307 250.378,336.360 247.907 C 336.413 245.436,336.602 243.231,336.781 243.007 C 337.231 242.443,337.253 214.746,336.804 214.205 C 336.605 213.965,336.414 211.436,336.380 208.585 C 336.341 205.380,336.142 203.180,335.859 202.823 C 335.490 202.359,335.517 202.315,336.000 202.600 C 336.484 202.885,336.510 202.842,336.138 202.377 C 335.884 202.060,335.626 200.450,335.564 198.800 C 335.502 197.150,335.309 195.607,335.136 195.371 C 334.962 195.135,334.786 194.003,334.746 192.855 C 334.705 191.707,334.551 190.693,334.402 190.601 C 334.254 190.510,334.092 189.307,334.042 187.929 C 333.992 186.551,333.792 185.231,333.597 184.996 C 333.402 184.761,333.198 183.811,333.143 182.885 C 333.088 181.958,332.899 181.200,332.722 181.200 C 332.545 181.200,332.400 180.300,332.400 179.200 C 332.400 178.100,332.220 177.200,332.000 177.200 C 331.780 177.200,331.600 176.426,331.600 175.480 C 331.600 174.534,331.429 173.589,331.219 173.379 C 331.010 173.170,330.793 172.324,330.737 171.499 C 330.682 170.675,330.493 170.000,330.318 170.000 C 330.143 170.000,330.000 169.381,330.000 168.624 C 330.000 167.867,329.820 167.136,329.600 167.000 C 329.380 166.864,329.200 166.144,329.200 165.400 C 329.200 164.656,329.020 163.936,328.800 163.800 C 328.580 163.664,328.400 163.034,328.400 162.400 C 328.400 161.766,328.220 161.136,328.000 161.000 C 327.780 160.864,327.600 160.234,327.600 159.600 C 327.600 158.966,327.420 158.336,327.200 158.200 C 326.980 158.064,326.800 157.254,326.800 156.400 C 326.800 155.546,326.620 154.736,326.400 154.600 C 326.180 154.464,326.000 153.924,326.000 153.400 C 326.000 152.876,325.820 152.336,325.600 152.200 C 325.380 152.064,325.200 151.513,325.200 150.976 C 325.200 150.439,325.032 150.000,324.827 150.000 C 324.621 150.000,324.468 149.497,324.485 148.883 C 324.503 148.269,324.302 147.365,324.040 146.875 C 323.778 146.385,323.664 145.820,323.788 145.619 C 323.912 145.419,323.855 145.157,323.661 145.038 C 323.468 144.918,323.088 143.961,322.818 142.910 C 322.547 141.860,322.163 140.595,321.963 140.100 C 321.763 139.605,321.437 138.795,321.237 138.300 C 320.147 135.596,319.731 134.141,319.907 133.644 C 320.027 133.305,319.928 133.197,319.652 133.368 C 319.378 133.537,319.200 133.354,319.200 132.904 C 319.200 132.495,318.975 131.918,318.700 131.621 C 318.294 131.184,318.312 131.142,318.800 131.400 C 319.288 131.658,319.306 131.616,318.900 131.179 C 318.625 130.882,318.400 130.316,318.400 129.920 C 318.400 129.524,318.240 129.200,318.044 129.200 C 317.848 129.200,317.449 128.390,317.157 127.400 C 316.865 126.410,316.517 125.600,316.385 125.600 C 316.253 125.600,315.900 124.700,315.600 123.600 C 315.300 122.500,314.944 121.600,314.808 121.600 C 314.672 121.600,314.332 120.925,314.053 120.100 C 313.383 118.119,311.878 115.035,311.500 114.867 C 311.335 114.793,311.200 114.198,311.200 113.543 C 311.200 112.851,311.032 112.456,310.800 112.600 C 310.580 112.736,310.400 112.668,310.400 112.450 C 310.400 112.231,310.191 111.545,309.935 110.926 C 309.680 110.307,309.500 109.665,309.535 109.500 C 309.571 109.335,309.420 109.200,309.200 109.200 C 308.980 109.200,308.800 108.840,308.800 108.400 C 308.800 107.960,308.620 107.600,308.400 107.600 C 308.180 107.600,308.000 107.335,308.000 107.012 C 308.000 106.689,307.642 105.788,307.205 105.009 C 306.768 104.231,306.399 103.460,306.386 103.297 C 306.372 103.134,305.978 102.370,305.509 101.600 C 305.041 100.830,304.595 99.848,304.519 99.417 C 304.442 98.987,304.234 98.537,304.056 98.417 C 303.878 98.298,303.147 97.127,302.433 95.816 C 301.719 94.505,300.789 92.947,300.367 92.354 C 299.945 91.761,299.600 91.079,299.600 90.838 C 299.600 90.597,299.420 90.400,299.200 90.400 C 298.980 90.400,298.800 90.040,298.800 89.600 C 298.800 89.160,298.620 88.800,298.400 88.800 C 298.180 88.800,298.000 88.564,298.000 88.275 C 298.000 87.987,297.640 87.364,297.200 86.892 C 296.760 86.420,296.400 85.756,296.400 85.417 C 296.400 85.078,296.220 84.800,296.000 84.800 C 295.780 84.800,295.597 84.395,295.594 83.900 C 295.589 83.172,295.514 83.115,295.200 83.600 C 294.886 84.085,294.811 84.028,294.806 83.300 C 294.803 82.805,294.620 82.400,294.400 82.400 C 294.180 82.400,294.000 82.080,294.000 81.688 C 294.000 81.297,293.640 80.717,293.200 80.400 C 292.760 80.083,292.400 79.493,292.400 79.088 C 292.400 78.684,292.220 78.464,292.000 78.600 C 291.780 78.736,291.600 78.567,291.600 78.224 C 291.600 77.881,291.420 77.600,291.200 77.600 C 290.980 77.600,290.800 77.330,290.800 77.000 C 290.800 76.670,290.609 76.400,290.376 76.400 C 290.143 76.400,290.064 76.220,290.200 76.000 C 290.336 75.780,290.137 75.600,289.757 75.600 C 289.377 75.600,289.172 75.495,289.301 75.366 C 289.430 75.237,289.196 74.742,288.782 74.266 C 288.368 73.790,288.027 73.261,288.023 73.092 C 288.017 72.798,287.625 72.265,286.471 70.986 C 286.181 70.664,286.054 70.400,286.190 70.400 C 286.325 70.400,286.023 69.973,285.518 69.450 C 284.288 68.178,283.200 66.836,283.200 66.592 C 283.200 66.482,282.660 65.828,282.000 65.137 C 281.340 64.446,280.800 63.608,280.800 63.274 C 280.800 62.940,280.689 62.778,280.552 62.914 C 280.242 63.224,279.200 62.215,279.200 61.605 C 279.200 61.356,279.020 61.264,278.800 61.400 C 278.580 61.536,278.400 61.367,278.400 61.024 C 278.400 60.681,278.220 60.400,278.000 60.400 C 277.780 60.400,277.600 60.119,277.600 59.776 C 277.600 59.433,277.420 59.264,277.200 59.400 C 276.980 59.536,276.800 59.461,276.800 59.234 C 276.800 59.007,276.015 58.036,275.055 57.076 C 274.096 56.117,273.241 55.167,273.155 54.966 C 273.070 54.765,272.401 54.105,271.669 53.500 C 270.937 52.895,270.450 52.400,270.585 52.400 C 270.721 52.400,270.599 52.149,270.316 51.842 C 270.032 51.535,269.665 51.366,269.500 51.466 C 269.335 51.565,269.200 51.367,269.200 51.024 C 269.200 50.681,269.043 50.400,268.850 50.400 C 268.267 50.400,265.575 47.758,265.864 47.469 C 266.110 47.223,265.428 47.038,264.700 47.153 C 264.535 47.179,264.400 46.930,264.400 46.600 C 264.400 46.270,264.139 46.000,263.820 46.000 C 263.501 46.000,263.056 45.685,262.832 45.300 C 262.608 44.915,262.419 44.748,262.412 44.929 C 262.394 45.413,261.200 44.132,261.200 43.629 C 261.200 43.393,261.065 43.221,260.900 43.247 C 260.075 43.378,259.600 43.141,259.600 42.600 C 259.600 42.270,259.370 42.000,259.089 42.000 C 258.808 42.000,257.987 41.460,257.264 40.800 C 256.542 40.140,255.808 39.600,255.635 39.600 C 255.461 39.600,254.754 39.060,254.063 38.400 C 253.372 37.740,252.626 37.200,252.404 37.200 C 252.182 37.200,252.000 37.048,252.000 36.863 C 252.000 36.677,251.145 36.094,250.100 35.565 C 249.055 35.037,247.976 34.392,247.702 34.133 C 247.428 33.873,246.213 33.176,245.002 32.583 C 243.791 31.991,242.800 31.347,242.800 31.153 C 242.800 30.959,242.545 30.800,242.233 30.800 C 241.922 30.800,241.576 30.575,241.465 30.300 C 241.319 29.938,241.254 29.955,241.232 30.361 C 241.210 30.741,240.948 30.632,240.421 30.024 C 239.993 29.531,239.473 29.231,239.267 29.359 C 239.060 29.487,238.668 29.323,238.396 28.996 C 238.124 28.668,237.575 28.400,237.175 28.400 C 236.775 28.400,236.341 28.228,236.211 28.017 C 236.081 27.807,235.739 27.725,235.451 27.836 C 235.164 27.946,234.696 27.757,234.412 27.415 C 234.128 27.073,233.203 26.682,232.356 26.547 C 231.508 26.411,230.611 26.055,230.362 25.754 C 230.113 25.454,229.750 25.307,229.555 25.428 C 229.360 25.549,229.200 25.496,229.200 25.311 C 229.200 25.126,228.723 24.935,228.140 24.887 C 227.558 24.839,226.803 24.574,226.464 24.300 C 226.010 23.932,225.923 23.928,226.136 24.283 C 226.330 24.606,226.057 24.574,225.313 24.185 C 224.701 23.866,223.570 23.490,222.800 23.350 C 222.030 23.210,221.213 22.949,220.985 22.769 C 220.756 22.589,219.811 22.398,218.885 22.343 C 217.958 22.288,217.200 22.099,217.200 21.922 C 217.200 21.745,216.469 21.600,215.576 21.600 C 214.683 21.600,214.036 21.465,214.138 21.300 C 214.240 21.135,212.945 20.942,211.261 20.871 C 209.578 20.799,208.029 20.574,207.820 20.371 C 207.311 19.875,186.509 19.881,186.333 20.378 M157.550 29.800 C 157.470 30.760,157.409 30.965,157.017 31.600 C 156.714 32.090,156.754 32.113,157.234 31.725 C 157.776 31.287,158.240 29.200,157.796 29.200 C 157.688 29.200,157.578 29.470,157.550 29.800 M66.392 164.405 C 65.619 164.882,66.017 165.166,66.973 164.819 C 67.399 164.664,67.570 164.429,67.354 164.295 C 67.138 164.162,66.706 164.211,66.392 164.405 " stroke="none" fill="#c2976d" fill-rule="evenodd"></path></g></svg><style>@media (prefers-color-scheme: light) { :root { filter: none; } }
</style></svg>